<svg width="24" height="25" viewBox="0 0 24 25" fill="none" xmlns="http://www.w3.org/2000/svg">
<path d="M20.0307 9.99784L12.5307 17.4978C12.461 17.5676 12.3783 17.6229 12.2873 17.6606C12.1962 17.6984 12.0986 17.7178 12.0001 17.7178C11.9015 17.7178 11.8039 17.6984 11.7128 17.6606C11.6218 17.6229 11.5391 17.5676 11.4694 17.4978L3.96943 9.99784C3.8287 9.85711 3.74963 9.66624 3.74963 9.46721C3.74963 9.26819 3.8287 9.07732 3.96943 8.93659C4.11016 8.79586 4.30103 8.7168 4.50005 8.7168C4.69907 8.7168 4.88995 8.79586 5.03068 8.93659L12.0001 15.9069L18.9694 8.93659C19.0391 8.86691 19.1218 8.81163 19.2129 8.77392C19.3039 8.73621 19.4015 8.7168 19.5001 8.7168C19.5986 8.7168 19.6962 8.73621 19.7872 8.77392C19.8783 8.81163 19.961 8.86691 20.0307 8.93659C20.1004 9.00627 20.1556 9.089 20.1933 9.18004C20.2311 9.27109 20.2505 9.36867 20.2505 9.46721C20.2505 9.56576 20.2311 9.66334 20.1933 9.75439C20.1556 9.84543 20.1004 9.92816 20.0307 9.99784Z" fill="black"/>
</svg>
