<svg width="24" height="25" viewBox="0 0 24 25" fill="none" xmlns="http://www.w3.org/2000/svg">
<path d="M3.96932 16.4358L11.4693 8.93575C11.539 8.86602 11.6217 8.8107 11.7127 8.77296C11.8038 8.73522 11.9014 8.71579 12 8.71579C12.0985 8.71579 12.1961 8.73522 12.2872 8.77296C12.3782 8.8107 12.4609 8.86602 12.5306 8.93575L20.0306 16.4358C20.1713 16.5765 20.2504 16.7674 20.2504 16.9664C20.2504 17.1654 20.1713 17.3563 20.0306 17.497C19.8898 17.6377 19.699 17.7168 19.4999 17.7168C19.3009 17.7168 19.1101 17.6377 18.9693 17.497L12 10.5267L5.03057 17.497C4.96089 17.5667 4.87817 17.622 4.78712 17.6597C4.69608 17.6974 4.59849 17.7168 4.49995 17.7168C4.4014 17.7168 4.30382 17.6974 4.21278 17.6597C4.12173 17.622 4.03901 17.5667 3.96932 17.497C3.89964 17.4273 3.84437 17.3446 3.80665 17.2536C3.76894 17.1625 3.74953 17.0649 3.74953 16.9664C3.74953 16.8678 3.76894 16.7703 3.80665 16.6792C3.84437 16.5882 3.89964 16.5054 3.96932 16.4358Z" fill="black"/>
</svg>
