<svg width="44" height="45" viewBox="0 0 44 45" fill="none" xmlns="http://www.w3.org/2000/svg">
<circle cx="22" cy="22.25" r="20.5" stroke="#999999" stroke-width="3"/>
<path d="M36.4957 7.755C38.5071 9.76641 39.131 13.1635 38.0474 17.3776C36.9734 21.5539 34.271 26.2432 30.1318 30.3824C25.9925 34.5217 21.3032 37.224 17.127 38.298C12.9129 39.3816 9.51577 38.7578 7.50436 36.7464C5.49296 34.735 4.86911 31.3379 5.95273 27.1238C7.02673 22.9475 9.72907 18.2582 13.8683 14.119C18.0076 9.9797 22.6969 7.27737 26.8732 6.20337C31.0872 5.11975 34.4843 5.74359 36.4957 7.755Z" stroke="#999999" stroke-width="3"/>
<path d="M7.50415 7.75499C9.51555 5.74358 12.9126 5.11974 17.1267 6.20336C21.303 7.27736 25.9923 9.97969 30.1316 14.119C34.2708 18.2582 36.9732 22.9475 38.0472 27.1238C39.1308 31.3379 38.5069 34.735 36.4955 36.7464C34.4841 38.7578 31.087 39.3816 26.8729 38.298C22.6967 37.224 18.0074 34.5217 13.8681 30.3824C9.72885 26.2431 7.02651 21.5538 5.95252 17.3776C4.86889 13.1635 5.49274 9.7664 7.50415 7.75499Z" stroke="#999999" stroke-width="3"/>
</svg>
