<svg width="44" height="44" viewBox="0 0 44 44" fill="none" xmlns="http://www.w3.org/2000/svg">
<path opacity="0.7" d="M13.2775 20.3173C14.0998 17.249 17.2537 14.0951 20.322 13.2729L39.4509 8.14651C42.5192 7.32425 44.3399 9.145 43.5177 12.2133L38.3913 31.3422C37.569 34.4105 34.4151 37.5644 31.3469 38.3867L12.2179 43.513C9.14963 44.3353 7.32888 42.5146 8.15115 39.4463L13.2775 20.3173Z" fill="#999999"/>
<path d="M5.60882 12.6493C6.43108 9.58107 9.58498 6.42717 12.6533 5.60491L31.7822 0.47854C34.8505 -0.343725 36.6713 1.47702 35.849 4.54529L30.7226 23.6743C29.9004 26.7425 26.7465 29.8964 23.6782 30.7187L4.5492 35.8451C1.48093 36.6673 -0.339816 34.8466 0.482448 31.7783L5.60882 12.6493Z" fill="#999999"/>
</svg>
