<svg width="44" height="44" viewBox="0 0 44 44" fill="none" xmlns="http://www.w3.org/2000/svg">
<path d="M15.7144 31.4294C24.3931 31.4294 31.4287 24.3939 31.4287 15.7151C31.4287 14.7315 31.3383 13.769 31.1654 12.8355C30.2319 12.6626 29.2694 12.5723 28.2858 12.5723C19.6071 12.5723 12.5715 19.6078 12.5715 28.2866C12.5715 29.2701 12.6619 30.2326 12.8348 31.1662C13.7683 31.339 14.7308 31.4294 15.7144 31.4294Z" fill="#999999"/>
<path opacity="0.8" fill-rule="evenodd" clip-rule="evenodd" d="M12.8347 31.1653C5.53118 29.8127 0 23.4095 0 15.7143C0 7.03553 7.03553 0 15.7143 0C23.4095 0 29.8128 5.53118 31.1653 12.8347C30.2318 12.6618 29.2693 12.5714 28.2857 12.5714C19.607 12.5714 12.5714 19.607 12.5714 28.2857C12.5714 29.2693 12.6618 30.2318 12.8347 31.1653Z" fill="#999999"/>
<path opacity="0.6" fill-rule="evenodd" clip-rule="evenodd" d="M15.7143 31.4279C24.3931 31.4279 31.4286 24.3923 31.4286 15.7136C31.4286 14.73 31.3382 13.7675 31.1654 12.834C38.4689 14.1866 44 20.5898 44 28.285C44 36.9638 36.9645 43.9993 28.2858 43.9993C20.5906 43.9993 14.1873 38.4681 12.8347 31.1646C13.7682 31.3375 14.7307 31.4279 15.7143 31.4279Z" fill="#999999"/>
</svg>
