<svg width="109" height="110" viewBox="0 0 109 110" fill="none" xmlns="http://www.w3.org/2000/svg">
<path d="M29.5155 100.468C24.7045 100.468 20.323 98.8953 16.3711 95.7504C12.5911 92.3808 9.58419 87.8881 7.35052 82.2721C5.11684 76.4315 4 69.8047 4 62.3917C4 56.5511 4.94502 50.8228 6.83505 45.2069C8.72509 39.591 11.3024 34.312 14.567 29.3699C18.0034 24.4279 21.9553 20.0475 26.4227 16.2287C30.89 12.4098 35.701 9.48951 40.8557 7.46777L50.6495 22.9678C43.9485 27.0113 38.4502 31.6163 34.1546 36.783C29.8591 41.9497 27.7113 46.4424 27.7113 50.2613C27.7113 53.1815 28.6564 55.7649 30.5464 58.0113C32.4364 60.2576 34.1546 62.2794 35.701 64.0765C39.4811 68.12 41.9725 71.4895 43.1753 74.1852C44.5498 76.8808 45.2371 79.6888 45.2371 82.6091C45.2371 88.0004 43.7766 92.3808 40.8557 95.7504C37.9347 98.8953 34.1546 100.468 29.5155 100.468ZM82.866 100.468C78.055 100.468 73.6735 98.8953 69.7216 95.7504C65.9416 92.3808 62.9347 87.8881 60.701 82.2721C58.4674 76.4315 57.3505 69.8047 57.3505 62.3917C57.3505 56.5511 58.2955 50.8228 60.1856 45.2069C62.0756 39.591 64.6529 34.312 67.9175 29.3699C71.354 24.4279 75.3058 20.0475 79.7732 16.2287C84.2405 12.4098 89.0515 9.48951 94.2062 7.46777L104 22.9678C97.299 27.0113 91.8007 31.6163 87.5051 36.783C83.2096 41.9497 81.0619 46.4424 81.0619 50.2613C81.0619 53.1815 82.0069 55.7649 83.8969 58.0113C85.7869 60.2576 87.5051 62.2794 89.0515 64.0765C92.8316 68.12 95.323 71.4895 96.5258 74.1852C97.9003 76.8808 98.5876 79.6888 98.5876 82.6091C98.5876 88.0004 97.1271 92.3808 94.2062 95.7504C91.2852 98.8953 87.5051 100.468 82.866 100.468Z" fill="#6E91FB"/>
</svg>
