<svg width="100" height="94" viewBox="0 0 100 94" fill="none" xmlns="http://www.w3.org/2000/svg">
<path d="M25.5155 93.4668C20.7045 93.4668 16.323 91.8943 12.3711 88.7494C8.59106 85.3798 5.58419 80.8871 3.35052 75.2711C1.11684 69.4306 0 62.8038 0 55.3907C0 49.5501 0.945017 43.8219 2.83505 38.2059C4.72509 32.59 7.3024 27.311 10.567 22.369C14.0034 17.4269 17.9553 13.0465 22.4227 9.22767C26.89 5.40883 31.701 2.48854 36.8557 0.466797L46.6495 15.9668C39.9485 20.0103 34.4502 24.6153 30.1546 29.782C25.8591 34.9487 23.7113 39.4414 23.7113 43.2603C23.7113 46.1806 24.6564 48.7639 26.5464 51.0103C28.4364 53.2567 30.1546 55.2784 31.701 57.0755C35.4811 61.119 37.9725 64.4885 39.1753 67.1842C40.5498 69.8798 41.2371 72.6878 41.2371 75.6081C41.2371 80.9994 39.7766 85.3798 36.8557 88.7494C33.9347 91.8943 30.1546 93.4668 25.5155 93.4668ZM78.866 93.4668C74.055 93.4668 69.6735 91.8943 65.7216 88.7494C61.9416 85.3798 58.9347 80.8871 56.701 75.2711C54.4674 69.4306 53.3505 62.8038 53.3505 55.3907C53.3505 49.5501 54.2955 43.8219 56.1856 38.2059C58.0756 32.59 60.6529 27.311 63.9175 22.369C67.354 17.4269 71.3058 13.0465 75.7732 9.22767C80.2405 5.40883 85.0515 2.48854 90.2062 0.466797L100 15.9668C93.299 20.0103 87.8007 24.6153 83.5051 29.782C79.2096 34.9487 77.0619 39.4414 77.0619 43.2603C77.0619 46.1806 78.0069 48.7639 79.8969 51.0103C81.7869 53.2567 83.5051 55.2784 85.0515 57.0755C88.8316 61.119 91.323 64.4885 92.5258 67.1842C93.9003 69.8798 94.5876 72.6878 94.5876 75.6081C94.5876 80.9994 93.1271 85.3798 90.2062 88.7494C87.2852 91.8943 83.5051 93.4668 78.866 93.4668Z" fill="#515585"/>
</svg>
