<svg width="64" height="64" viewBox="0 0 64 64" fill="none" xmlns="http://www.w3.org/2000/svg">
<path d="M8 56V50.6667H13.3333V13.3333C13.3333 11.8667 13.856 10.6116 14.9013 9.568C15.9467 8.52444 17.2018 8.00178 18.6667 8H45.3333C46.8 8 48.056 8.52267 49.1013 9.568C50.1467 10.6133 50.6684 11.8684 50.6667 13.3333V50.6667H56V56H8ZM40 50.6667H45.3333V13.3333H33.3333V10.4C35.2889 10.7556 36.8889 11.6667 38.1333 13.1333C39.3778 14.6 40 16.3111 40 18.2667V50.6667ZM29.3333 34.6667C30.0889 34.6667 30.7227 34.4107 31.2347 33.8987C31.7467 33.3867 32.0018 32.7538 32 32C31.9982 31.2462 31.7422 30.6133 31.232 30.1013C30.7218 29.5893 30.0889 29.3333 29.3333 29.3333C28.5778 29.3333 27.9449 29.5893 27.4347 30.1013C26.9244 30.6133 26.6684 31.2462 26.6667 32C26.6649 32.7538 26.9209 33.3876 27.4347 33.9013C27.9484 34.4151 28.5813 34.6702 29.3333 34.6667Z" fill="#515585"/>
</svg>
