<svg width="49" height="49" viewBox="0 0 49 49" fill="none" xmlns="http://www.w3.org/2000/svg">
<path d="M24.5001 4.08301C25.0002 4.08307 25.4828 4.26667 25.8565 4.59897C26.2302 4.93127 26.469 5.38916 26.5275 5.8858L26.5418 6.12467V6.23697C30.5891 6.69072 34.3712 8.47552 37.2945 11.3112C40.2178 14.1469 42.1168 17.873 42.6934 21.9047L42.7628 22.458H42.8751C43.3955 22.4586 43.896 22.6578 44.2744 23.0151C44.6528 23.3723 44.8805 23.8605 44.911 24.38C44.9415 24.8995 44.7725 25.411 44.4385 25.8101C44.1045 26.2091 43.6307 26.4656 43.114 26.527L42.8751 26.5413H42.7628C42.309 30.5887 40.5243 34.3708 37.6885 37.2941C34.8528 40.2174 31.1267 42.1163 27.0951 42.693L26.5418 42.7624V42.8747C26.5412 43.3951 26.3419 43.8956 25.9847 44.274C25.6275 44.6524 25.1392 44.8801 24.6198 44.9106C24.1003 44.9411 23.5887 44.772 23.1897 44.438C22.7906 44.104 22.5342 43.6303 22.4727 43.1135L22.4584 42.8747V42.7624C18.4111 42.3086 14.629 40.5238 11.7057 37.6881C8.7824 34.8524 6.88342 31.1263 6.30681 27.0946L6.23739 26.5413H6.1251C5.60472 26.5408 5.1042 26.3415 4.7258 25.9843C4.34741 25.627 4.1197 25.1388 4.08921 24.6193C4.05871 24.0998 4.22773 23.5883 4.56172 23.1893C4.89572 22.7902 5.36949 22.5338 5.88622 22.4723L6.1251 22.458H6.23739C6.69115 18.4107 8.47595 14.6285 11.3117 11.7053C14.1474 8.78197 17.8735 6.883 21.9051 6.30638L22.4584 6.23697V6.12467C22.4584 5.58319 22.6735 5.06388 23.0564 4.681C23.4393 4.29811 23.9586 4.08301 24.5001 4.08301ZM24.5001 14.2913C21.7927 14.2913 19.1962 15.3669 17.2817 17.2813C15.3673 19.1957 14.2918 21.7923 14.2918 24.4997C14.2918 27.2071 15.3673 29.8036 17.2817 31.7181C19.1962 33.6325 21.7927 34.708 24.5001 34.708C27.2075 34.708 29.804 33.6325 31.7185 31.7181C33.6329 29.8036 34.7084 27.2071 34.7084 24.4997C34.7084 21.7923 33.6329 19.1957 31.7185 17.2813C29.804 15.3669 27.2075 14.2913 24.5001 14.2913ZM24.5001 18.3747C26.1245 18.3747 27.6825 19.02 28.8311 20.1686C29.9798 21.3173 30.6251 22.8752 30.6251 24.4997C30.6251 26.1241 29.9798 27.682 28.8311 28.8307C27.6825 29.9794 26.1245 30.6247 24.5001 30.6247C22.8756 30.6247 21.3177 29.9794 20.1691 28.8307C19.0204 27.682 18.3751 26.1241 18.3751 24.4997C18.3751 22.8752 19.0204 21.3173 20.1691 20.1686C21.3177 19.02 22.8756 18.3747 24.5001 18.3747Z" fill="#4F5383"/>
</svg>
