<svg width="33" height="33" viewBox="0 0 33 33" fill="none" xmlns="http://www.w3.org/2000/svg">
<path d="M10.3686 23.4678C9.26203 23.4678 8.2543 23.1972 7.34536 22.6562C6.47594 22.0765 5.78436 21.3035 5.27062 20.3373C4.75687 19.3325 4.5 18.1924 4.5 16.9171C4.5 15.9122 4.71735 14.9267 5.15206 13.9605C5.58677 12.9943 6.17955 12.0861 6.93041 11.2359C7.72079 10.3856 8.62972 9.63203 9.65722 8.97502C10.6847 8.31802 11.7912 7.8156 12.9768 7.46777L15.2294 10.1344C13.6881 10.8301 12.4235 11.6224 11.4356 12.5113C10.4476 13.4001 9.95361 14.1731 9.95361 14.8301C9.95361 15.3325 10.171 15.777 10.6057 16.1634C11.0404 16.5499 11.4356 16.8977 11.7912 17.2069C12.6607 17.9026 13.2337 18.4823 13.5103 18.946C13.8265 19.4098 13.9845 19.8929 13.9845 20.3953C13.9845 21.3228 13.6486 22.0765 12.9768 22.6562C12.305 23.1972 11.4356 23.4678 10.3686 23.4678ZM22.6392 23.4678C21.5326 23.4678 20.5249 23.1972 19.616 22.6562C18.7466 22.0765 18.055 21.3035 17.5412 20.3373C17.0275 19.3325 16.7706 18.1924 16.7706 16.9171C16.7706 15.9122 16.988 14.9267 17.4227 13.9605C17.8574 12.9943 18.4502 12.0861 19.201 11.2359C19.9914 10.3856 20.9003 9.63203 21.9278 8.97502C22.9553 8.31802 24.0619 7.8156 25.2474 7.46777L27.5 10.1344C25.9588 10.8301 24.6942 11.6224 23.7062 12.5113C22.7182 13.4001 22.2242 14.1731 22.2242 14.8301C22.2242 15.3325 22.4416 15.777 22.8763 16.1634C23.311 16.5499 23.7062 16.8977 24.0619 17.2069C24.9313 17.9026 25.5043 18.4823 25.7809 18.946C26.0971 19.4098 26.2552 19.8929 26.2552 20.3953C26.2552 21.3228 25.9192 22.0765 25.2474 22.6562C24.5756 23.1972 23.7062 23.4678 22.6392 23.4678Z" fill="black" fill-opacity="0.61"/>
</svg>
