<svg width="64" height="64" viewBox="0 0 64 64" fill="none" xmlns="http://www.w3.org/2000/svg">
<path d="M24.75 11.125L3.6975 60.875H11.1687L26.475 11.125H24.75ZM37.525 11.125L52.825 60.875H60.3L39.25 11.125H37.525ZM27.6 15.125L27.2125 16.375H36.7875L36.4 15.125H27.6ZM17.6125 19.625L17.0625 21.375H17.9625L18.7 19.625H17.6125ZM26.2125 19.625L25.675 21.375H38.325L37.7875 19.625H26.2125ZM45.3 19.625L46.0375 21.375H47.0125L46.4625 19.625H45.3ZM13.8375 25.875L13.075 28.125H15.1125L16.0625 25.875H13.8375ZM24.2875 25.875L23.6 28.125H40.4L39.7125 25.875H24.2875ZM47.9375 25.875L48.8875 28.125H50.95L50.2125 25.875H47.9375ZM9.36 33.625L8.4725 36.875H11.4062L12.775 33.625H9.36ZM21.9 33.625L20.9 36.875H43.1L42.1 33.625H21.9ZM51.225 33.625L52.6 36.875H55.525L54.6375 33.625H51.225ZM5.37875 43.125L4.44125 46.875H7.17625L8.7625 43.125H5.37875ZM18.9875 43.125L17.825 46.875H46.175L45.0125 43.125H18.9875ZM55.2375 43.125L56.825 46.875H59.5625L58.625 43.125H55.2375ZM2.375 55.125V58.225L3.68625 55.125H2.375ZM15.2875 55.125L13.5125 60.875H50.4875L48.7125 55.125H15.2875ZM60.3125 55.125L61.625 58.225V55.125H60.3125Z" fill="#515585"/>
</svg>
