<svg width="64" height="45" viewBox="0 0 64 45" fill="none" xmlns="http://www.w3.org/2000/svg">
<g clip-path="url(#clip0_306_624)">
<path d="M37.2069 25.9375V25.8L36.3793 14.8C36.3563 14.5021 36.2299 14.2443 36 14.0266C35.7701 13.8089 35.5057 13.7 35.2069 13.7H28.7931C28.4942 13.7 28.2299 13.8089 28 14.0266C27.7701 14.2443 27.6437 14.5021 27.6207 14.8L26.7931 25.8V25.9375C26.7701 26.2125 26.862 26.4417 27.0689 26.625C27.2758 26.8083 27.5172 26.9 27.7931 26.9H36.2069C36.4827 26.9 36.7241 26.8083 36.931 26.625C37.1379 26.4417 37.2299 26.2125 37.2069 25.9375ZM63.3793 41.9906C63.3793 43.6635 62.8506 44.5 61.7931 44.5H37.5172C37.8161 44.5 38.0689 44.3911 38.2758 44.1734C38.4827 43.9557 38.5747 43.6979 38.5517 43.4L37.862 34.6C37.8391 34.3021 37.7126 34.0443 37.4827 33.8266C37.2528 33.6089 36.9885 33.5 36.6896 33.5H27.3103C27.0115 33.5 26.7471 33.6089 26.5172 33.8266C26.2873 34.0443 26.1609 34.3021 26.1379 34.6L25.4483 43.4C25.4253 43.6979 25.5172 43.9557 25.7241 44.1734C25.931 44.3911 26.1839 44.5 26.4827 44.5H2.20687C1.1494 44.5 0.620667 43.6635 0.620667 41.9906C0.620667 40.7531 0.919517 39.424 1.51722 38.0031L15.8965 2.11563C16.0804 1.68021 16.3793 1.30208 16.7931 0.98125C17.2069 0.660417 17.6437 0.5 18.1034 0.5H29.7931C29.4942 0.5 29.2299 0.608854 29 0.826562C28.7701 1.04427 28.6437 1.30208 28.6207 1.6L28.1034 8.2C28.0804 8.52083 28.1724 8.78438 28.3793 8.99063C28.5862 9.19688 28.8391 9.3 29.1379 9.3H34.862C35.1609 9.3 35.4138 9.19688 35.6207 8.99063C35.8276 8.78438 35.9195 8.52083 35.8965 8.2L35.3793 1.6C35.3563 1.30208 35.2299 1.04427 35 0.826562C34.7701 0.608854 34.5057 0.5 34.2069 0.5H45.8965C46.3563 0.5 46.7931 0.660417 47.2069 0.98125C47.6207 1.30208 47.9195 1.68021 48.1034 2.11563L62.4827 38.0031C63.0804 39.424 63.3793 40.7531 63.3793 41.9906Z" fill="#515585"/>
</g>
<defs>
<clipPath id="clip0_306_624">
<rect width="64" height="44" fill="white" transform="translate(0 0.5)"/>
</clipPath>
</defs>
</svg>
