<svg width="64" height="64" viewBox="0 0 64 64" fill="none" xmlns="http://www.w3.org/2000/svg">
<path d="M12.7285 26.9227C14.6655 27.5089 17.5236 27.9806 21.2106 27.9806C24.9116 27.9806 27.7697 27.5089 29.6984 26.9227C27.5129 26.2585 24.4539 25.8789 21.2163 25.8789C17.973 25.8789 14.914 26.2585 12.7285 26.9227Z" fill="#515585"/>
<path d="M60.3501 26.3002C60.258 26.222 60.071 26.1076 59.8058 26.1578L58.5052 26.3923C51.2735 27.7069 44.4213 28.9433 40.5 26.6351V39.2957C41.1866 39.9041 42.0658 40.3172 43.1013 40.574V36.5521C43.1013 36.139 43.4362 35.8013 43.8521 35.8013C44.2736 35.8013 44.6029 36.1362 44.6029 36.5521V40.8308C46.1324 40.9955 47.8824 40.9453 49.7609 40.7527V34.9444C49.7609 34.5313 50.0902 34.1936 50.5117 34.1936C50.9248 34.1936 51.2625 34.5285 51.2625 34.9444V40.5741C52.9428 40.3536 54.6984 40.0605 56.4567 39.7451V35.5082C56.4567 35.0867 56.7917 34.7574 57.2075 34.7574C57.629 34.7574 57.9584 35.0867 57.9584 35.5082V39.4743C58.0505 39.452 58.137 39.4381 58.2291 39.4241L60.0293 39.1031C60.3447 39.0473 60.5792 38.7738 60.5792 38.4528V26.7997C60.5931 26.529 60.4422 26.3644 60.3501 26.3002Z" fill="#515585"/>
<path d="M7.35362 43.1999V39.3063C7.35362 38.8932 7.68855 38.5555 8.10444 38.5555C8.51753 38.5555 8.85526 38.8904 8.85526 39.3063V43.7357C10.3401 44.1991 12.0845 44.5787 14.0076 44.8494V38.0252C14.0076 37.6037 14.3425 37.2743 14.7584 37.2743C15.1715 37.2743 15.5092 37.6037 15.5092 38.0252V45.0336C17.1253 45.2039 18.853 45.3127 20.6616 45.3267V41.1959C20.6616 40.7828 20.9965 40.4451 21.4124 40.4451C21.8255 40.4451 22.1632 40.78 22.1632 41.1959V45.3183C23.9774 45.2904 25.7078 45.176 27.3155 44.989V38.0224C27.3155 37.6009 27.6504 37.2716 28.0663 37.2716C28.4878 37.2716 28.8172 37.6009 28.8172 38.0224V44.7824C30.7681 44.4893 32.5042 44.0818 33.9751 43.5961V39.2532C33.9751 38.8401 34.3045 38.5024 34.7259 38.5024C35.139 38.5024 35.4768 38.8373 35.4768 39.2532V43.0184C37.6845 42.0471 38.9852 40.8385 38.9852 39.5016L38.9796 28.2422C36.0852 31.1003 29.2972 33.0652 21.1945 33.0652C13.0918 33.0652 6.31249 31.1003 3.41797 28.2422V39.5044C3.43192 40.9196 4.8891 42.1978 7.35362 43.1999Z" fill="#515585"/>
<path d="M10.692 26.0793C13.0561 25.0158 16.9301 24.3711 21.2226 24.3711C25.5097 24.3711 29.3838 24.9991 31.7475 26.0793C32.3559 25.7304 32.6825 25.3871 32.6825 25.1135C32.6825 23.9776 28.1107 22.2471 21.2223 22.2471C14.3339 22.2471 9.76786 23.9776 9.76786 25.1135C9.75669 25.3843 10.0835 25.7276 10.692 26.0793Z" fill="#515585"/>
<path d="M21.2082 31.5585C31.8481 31.5585 38.9933 28.2286 38.9933 25.1138C38.9933 22.0045 31.8481 18.6748 21.2082 18.6748C10.5768 18.6776 3.43164 22.013 3.43164 25.1138C3.43164 28.2287 10.5768 31.5585 21.2082 31.5585ZM21.2082 20.7485C27.6528 20.7485 34.1753 22.2557 34.1753 25.1221C34.1753 26.0655 33.4608 26.8582 32.2885 27.5001C32.1964 27.5783 32.1015 27.6229 31.9954 27.6508C29.5449 28.8594 25.3722 29.4929 21.2133 29.4929C17.0686 29.4929 12.9042 28.8705 10.4534 27.6564C10.3473 27.6341 10.2608 27.5783 10.1743 27.5141C8.97969 26.8637 8.25959 26.0711 8.25959 25.1193C8.25401 22.2501 14.7712 20.7484 21.2074 20.7484L21.2082 20.7485Z" fill="#515585"/>
</svg>
