<svg width="64" height="64" viewBox="0 0 64 64" fill="none" xmlns="http://www.w3.org/2000/svg">
<path d="M26.6666 58.6673C20.4889 57.1118 15.3884 53.5669 11.3653 48.0326C7.3422 42.4984 5.33154 36.3544 5.33331 29.6006V13.334L26.6666 5.33398L50.6666 13.334V29.6006C50.6666 36.3562 48.656 42.5011 44.6346 48.0353C40.6133 53.5695 32.8462 57.1135 26.6666 58.6673Z" fill="#C5D1F5"/>
<path fill-rule="evenodd" clip-rule="evenodd" d="M30.2838 6.3109C31.3902 5.89637 32.6094 5.89637 33.7158 6.3109L50.8269 12.7245C51.759 13.0737 52.5622 13.699 53.1292 14.5167C53.6962 15.3345 53.9999 16.3058 53.9998 17.3007V30.4039C53.9999 34.4877 52.8622 40.934 50.7143 44.4079C48.5664 47.8818 45.4931 50.6892 41.8387 52.5155L33.64 56.6129C33.1308 56.8675 32.5692 57 31.9998 57C31.4304 57 30.8688 56.8675 30.3596 56.6129L22.1609 52.5155C18.5066 50.6892 15.4332 47.8818 13.2853 44.4079C11.1374 40.934 9.99973 34.4877 9.99982 30.4039V17.3007C9.99969 16.3058 10.3034 15.3345 10.8704 14.5167C11.4374 13.699 12.2406 13.0737 13.1727 12.7245L30.2838 6.3109ZM31.9998 10.8871L14.8887 17.3007V30.4039C14.8893 33.5799 15.7746 39.1362 17.4454 41.8376C19.1162 44.5389 21.5066 46.722 24.3487 48.1421L31.9998 51.9707V10.8871Z" fill="#515585"/>
</svg>
