<svg width="64" height="64" viewBox="0 0 64 64" fill="none" xmlns="http://www.w3.org/2000/svg">
<path d="M26.6666 58.6667C20.4888 57.1111 15.3884 53.5663 11.3653 48.032C7.34214 42.4978 5.33148 36.3538 5.33325 29.6V13.3334L26.6666 5.33337L50.6666 13.3334V29.6C50.6666 36.3556 48.6559 42.5005 44.6346 48.0347C40.6132 53.5689 32.8461 57.1129 26.6666 58.6667Z" fill="#C5D1F5"/>
<path fill-rule="evenodd" clip-rule="evenodd" d="M30.2838 6.3109C31.3902 5.89637 32.6093 5.89637 33.7158 6.3109L50.8269 12.7245C51.7589 13.0737 52.5622 13.699 53.1292 14.5167C53.6961 15.3345 53.9999 16.3058 53.9998 17.3007V30.4039C53.9998 34.4877 52.8622 40.934 50.7143 44.4079C48.5663 47.8818 45.493 50.6892 41.8386 52.5155L33.64 56.6129C33.1307 56.8675 32.5692 57 31.9998 57C31.4304 57 30.8688 56.8675 30.3595 56.6129L22.1609 52.5155C18.5065 50.6892 15.4332 47.8818 13.2853 44.4079C11.1373 40.934 9.99967 34.4877 9.99976 30.4039V17.3007C9.99963 16.3058 10.3034 15.3345 10.8704 14.5167C11.4373 13.699 12.2406 13.0737 13.1726 12.7245L30.2838 6.3109ZM31.9998 10.8871L14.8886 17.3007V30.4039C14.8892 33.5799 15.7745 39.1362 17.4453 41.8376C19.1162 44.5389 21.5065 46.722 24.3486 48.1421L31.9998 51.9707V10.8871Z" fill="#0033CC"/>
</svg>
