<svg width="63" height="64" viewBox="0 0 63 64" fill="none" xmlns="http://www.w3.org/2000/svg">
<path d="M22.1077 54.9813C26.7173 57.44 29.022 58.6667 31.5 58.6667V32L6.92475 18.8613L6.81975 19.04C5.25 21.744 5.25 25.112 5.25 31.8453V32.1573C5.25 38.888 5.25 42.256 6.81712 44.96C8.38687 47.6667 11.2114 49.1733 16.8577 52.184L22.1077 54.9813Z" fill="#515585"/>
<path opacity="0.7" d="M46.1387 11.8183L40.8887 9.01834C36.2818 6.56234 33.9771 5.33301 31.4991 5.33301C29.0185 5.33301 26.7163 6.55967 22.1068 9.01834L16.8568 11.8183C11.3338 14.7623 8.50933 16.2663 6.92383 18.8583L31.4991 31.9997L56.0743 18.861C54.4836 16.2663 51.6643 14.7623 46.1387 11.8183Z" fill="#515585"/>
<path opacity="0.5" d="M56.1829 19.04L56.0752 18.8613L31.5 32V58.6667C33.978 58.6667 36.2828 57.44 40.8923 54.9813L46.1422 52.1813C51.7886 49.1707 54.6131 47.6667 56.1829 44.96C57.75 42.256 57.75 38.888 57.75 32.16V31.848C57.75 25.1147 57.75 21.744 56.1829 19.04Z" fill="#515585"/>
<path d="M16.5985 11.9569L16.861 11.8182L20.7801 9.72754L44.6676 23.0742L55.2332 17.7115C55.592 18.124 55.9087 18.5666 56.1835 19.0395C56.5772 19.7169 56.8712 20.4369 57.0917 21.2395L46.5944 26.5702V34.6662C46.5944 35.1966 46.3869 35.7053 46.0177 36.0804C45.6485 36.4555 45.1478 36.6662 44.6256 36.6662C44.1035 36.6662 43.6027 36.4555 43.2335 36.0804C42.8643 35.7053 42.6569 35.1966 42.6569 34.6662V28.5702L33.4694 33.2369V58.4102C32.8264 58.5795 32.1649 58.6656 31.5006 58.6662C30.8496 58.6662 30.2065 58.5809 29.5319 58.4102V33.2369L5.91211 21.2369C6.13261 20.4369 6.42661 19.7169 6.82036 19.0395C7.09336 18.5666 7.41011 18.124 7.77061 17.7115L31.5006 29.7649L40.3915 25.2502L16.5985 11.9569Z" fill="#515585"/>
</svg>
