<svg width="64" height="66" viewBox="0 0 64 66" fill="none" xmlns="http://www.w3.org/2000/svg">
<path d="M29.688 42.1033C30.4916 42.9194 31.5404 43.2941 32.8347 43.2273C34.1324 43.1587 35.0907 42.6938 35.7093 41.8325L49.7173 21.9994L30.088 36.126C29.2062 36.7291 28.7093 37.6635 28.5973 38.9292C28.4853 40.1949 28.8489 41.2529 29.688 42.1033ZM14.6 52.4167C14.1022 52.4167 13.6471 52.2894 13.2347 52.0348C12.8222 51.7784 12.4738 51.4299 12.1893 50.9894C11.1369 49.1459 10.3422 47.1977 9.80533 45.1448C9.26844 43.0919 9 41.0019 9 38.875C9 35.5094 9.63111 32.3443 10.8933 29.3796C12.1573 26.4149 13.8702 23.8356 16.032 21.6419C18.192 19.4445 20.7316 17.7049 23.6507 16.4229C26.5698 15.141 29.6862 14.5 33 14.5C36.3031 14.5 39.4009 15.1301 42.2933 16.3904C45.1858 17.6507 47.7209 19.3669 49.8987 21.539C52.0764 23.711 53.7991 26.2542 55.0667 29.1683C56.3342 32.0825 56.9742 35.2169 56.9867 38.5717C56.9956 40.8106 56.7342 42.9854 56.2027 45.096C55.6711 47.2067 54.8684 49.2407 53.7947 51.1979C53.5458 51.6385 53.2062 51.9517 52.776 52.1377C52.3476 52.3237 51.8836 52.4167 51.384 52.4167H14.6Z" fill="#C5D1F5"/>
<path d="M31.688 40.1033C32.4916 40.9194 33.5404 41.2941 34.8347 41.2273C36.1324 41.1587 37.0907 40.6938 37.7093 39.8325L51.7173 19.9994L32.088 34.126C31.2062 34.7291 30.7093 35.6635 30.5973 36.9292C30.4853 38.1949 30.8489 39.2529 31.688 40.1033ZM16.6 50.4167C16.1022 50.4167 15.6471 50.2894 15.2347 50.0348C14.8222 49.7784 14.4738 49.4299 14.1893 48.9894C13.1369 47.1459 12.3422 45.1977 11.8053 43.1448C11.2684 41.0919 11 39.0019 11 36.875C11 33.5094 11.6311 30.3443 12.8933 27.3796C14.1573 24.4149 15.8702 21.8356 18.032 19.6419C20.192 17.4445 22.7316 15.7049 25.6507 14.4229C28.5698 13.141 31.6862 12.5 35 12.5C38.3031 12.5 41.4009 13.1301 44.2933 14.3904C47.1858 15.6507 49.7209 17.3669 51.8987 19.539C54.0764 21.711 55.7991 24.2542 57.0667 27.1683C58.3342 30.0825 58.9742 33.2169 58.9867 36.5717C58.9956 38.8106 58.7342 40.9854 58.2027 43.096C57.6711 45.2067 56.8684 47.2407 55.7947 49.1979C55.5458 49.6385 55.2062 49.9517 54.776 50.1377C54.3476 50.3237 53.8836 50.4167 53.384 50.4167H16.6Z" fill="#0033CC"/>
</svg>
