<svg width="64" height="65" viewBox="0 0 64 65" fill="none" xmlns="http://www.w3.org/2000/svg">
<path d="M29.688 41.6033C30.4916 42.4194 31.5404 42.7941 32.8347 42.7273C34.1324 42.6587 35.0907 42.1938 35.7093 41.3325L49.7173 21.4994L30.088 35.626C29.2062 36.2291 28.7093 37.1635 28.5973 38.4292C28.4853 39.6949 28.8489 40.7529 29.688 41.6033ZM14.6 51.9167C14.1022 51.9167 13.6471 51.7894 13.2347 51.5348C12.8222 51.2784 12.4738 50.9299 12.1893 50.4894C11.1369 48.6459 10.3422 46.6977 9.80533 44.6448C9.26844 42.5919 9 40.5019 9 38.375C9 35.0094 9.63111 31.8443 10.8933 28.8796C12.1573 25.9149 13.8702 23.3356 16.032 21.1419C18.192 18.9445 20.7316 17.2049 23.6507 15.9229C26.5698 14.641 29.6862 14 33 14C36.3031 14 39.4009 14.6301 42.2933 15.8904C45.1858 17.1507 47.7209 18.8669 49.8987 21.039C52.0764 23.211 53.7991 25.7542 55.0667 28.6683C56.3342 31.5825 56.9742 34.7169 56.9867 38.0717C56.9956 40.3106 56.7342 42.4854 56.2027 44.596C55.6711 46.7067 54.8684 48.7407 53.7947 50.6979C53.5458 51.1385 53.2062 51.4517 52.776 51.6377C52.3476 51.8237 51.8836 51.9167 51.384 51.9167H14.6Z" fill="#C5D1F5"/>
<path d="M31.688 39.6033C32.4916 40.4194 33.5404 40.7941 34.8347 40.7273C36.1324 40.6587 37.0907 40.1938 37.7093 39.3325L51.7173 19.4994L32.088 33.626C31.2062 34.2291 30.7093 35.1635 30.5973 36.4292C30.4853 37.6949 30.8489 38.7529 31.688 39.6033ZM16.6 49.9167C16.1022 49.9167 15.6471 49.7894 15.2347 49.5348C14.8222 49.2784 14.4738 48.9299 14.1893 48.4894C13.1369 46.6459 12.3422 44.6977 11.8053 42.6448C11.2684 40.5919 11 38.5019 11 36.375C11 33.0094 11.6311 29.8443 12.8933 26.8796C14.1573 23.9149 15.8702 21.3356 18.032 19.1419C20.192 16.9445 22.7316 15.2049 25.6507 13.9229C28.5698 12.641 31.6862 12 35 12C38.3031 12 41.4009 12.6301 44.2933 13.8904C47.1858 15.1507 49.7209 16.8669 51.8987 19.039C54.0764 21.211 55.7991 23.7542 57.0667 26.6683C58.3342 29.5825 58.9742 32.7169 58.9867 36.0717C58.9956 38.3106 58.7342 40.4854 58.2027 42.596C57.6711 44.7067 56.8684 46.7407 55.7947 48.6979C55.5458 49.1385 55.2062 49.4517 54.776 49.6377C54.3476 49.8237 53.8836 49.9167 53.384 49.9167H16.6Z" fill="#515585"/>
</svg>
