<svg width="64" height="64" viewBox="0 0 64 64" fill="none" xmlns="http://www.w3.org/2000/svg">
<path opacity="0.2" fill-rule="evenodd" clip-rule="evenodd" d="M35.2 19.2001H6.40004C4.70266 19.2001 3.07479 19.8744 1.87456 21.0746C0.674328 22.2748 4.19617e-05 23.9027 4.19617e-05 25.6001V48.0001C-0.000347137 49.0641 0.264545 50.1114 0.77076 51.0473C1.27697 51.9832 2.00853 52.7781 2.89924 53.3601C2.48678 54.4089 2.32629 55.5399 2.4307 56.6621C2.53511 57.7843 2.90151 58.8663 3.5004 59.8211C4.09929 60.7758 4.91394 61.5766 5.8788 62.1591C6.84367 62.7415 7.93178 63.0893 9.05559 63.1745C10.1794 63.2597 11.3075 63.0798 12.3491 62.6495C13.3908 62.2191 14.3168 61.5502 15.0528 60.6966C15.7887 59.8431 16.314 58.8287 16.5863 57.735C16.8587 56.6414 16.8705 55.4991 16.6208 54.4001H31.3792C31.2598 54.9142 31.2 55.4475 31.2 56.0001C31.2006 57.0132 31.4149 58.0148 31.829 58.9395C32.2431 59.8641 32.8477 60.6909 33.6033 61.3659C34.3588 62.0408 35.2483 62.5488 36.2136 62.8564C37.1789 63.1641 38.1983 63.2646 39.205 63.1513C40.2118 63.038 41.1834 62.7135 42.0562 62.1991C42.929 61.6846 43.6834 60.9917 44.27 60.1657C44.8567 59.3398 45.2625 58.3993 45.4608 57.4057C45.6591 56.4122 45.6455 55.388 45.4208 54.4001H54.4C56.0974 54.4001 57.7253 53.7258 58.9255 52.5256C60.1258 51.3253 60.8 49.6975 60.8 48.0001V41.6001L58.24 33.3121C57.8368 32.0058 57.0258 30.863 55.9259 30.0511C54.8261 29.2392 53.4951 28.8008 52.128 28.8001H41.6V25.6001C41.6 23.9027 40.9258 22.2748 39.7255 21.0746C38.5253 19.8744 36.8974 19.2001 35.2 19.2001Z" fill="#0033CC"/>
<path fill-rule="evenodd" clip-rule="evenodd" d="M46.3999 52.8C46.3999 54.4974 45.7256 56.1253 44.5254 57.3255C43.3252 58.5257 41.6973 59.2 39.9999 59.2C38.3025 59.2 36.6747 58.5257 35.4744 57.3255C34.2742 56.1253 33.5999 54.4974 33.5999 52.8C33.5999 51.1026 34.2742 49.4748 35.4744 48.2745C36.6747 47.0743 38.3025 46.4 39.9999 46.4C41.6973 46.4 43.3252 47.0743 44.5254 48.2745C45.7256 49.4748 46.3999 51.1026 46.3999 52.8ZM36.7999 52.8C36.7999 53.6487 37.137 54.4627 37.7372 55.0628C38.3373 55.6629 39.1512 56 39.9999 56C40.8486 56 41.6625 55.6629 42.2626 55.0628C42.8628 54.4627 43.1999 53.6487 43.1999 52.8C43.1999 51.9513 42.8628 51.1374 42.2626 50.5373C41.6625 49.9372 40.8486 49.6 39.9999 49.6C39.1512 49.6 38.3373 49.9372 37.7372 50.5373C37.137 51.1374 36.7999 51.9513 36.7999 52.8ZM17.5999 52.8C17.5999 54.4974 16.9256 56.1253 15.7254 57.3255C14.5251 58.5257 12.8973 59.2 11.1999 59.2C9.50251 59.2 7.87465 58.5257 6.67442 57.3255C5.47418 56.1253 4.7999 54.4974 4.7999 52.8C4.7999 51.1026 5.47418 49.4748 6.67442 48.2745C7.87465 47.0743 9.50251 46.4 11.1999 46.4C12.8973 46.4 14.5251 47.0743 15.7254 48.2745C16.9256 49.4748 17.5999 51.1026 17.5999 52.8ZM7.9999 52.8C7.9999 53.6487 8.33704 54.4627 8.93716 55.0628C9.53727 55.6629 10.3512 56 11.1999 56C12.0486 56 12.8625 55.6629 13.4626 55.0628C14.0628 54.4627 14.3999 53.6487 14.3999 52.8C14.3999 51.9513 14.0628 51.1374 13.4626 50.5373C12.8625 49.9372 12.0486 49.6 11.1999 49.6C10.3512 49.6 9.53727 49.9372 8.93716 50.5373C8.33704 51.1374 7.9999 51.9513 7.9999 52.8Z" fill="#0033CC"/>
<path fill-rule="evenodd" clip-rule="evenodd" d="M9.6001 14.4H35.2001C36.8975 14.4 38.5253 15.0743 39.7256 16.2745C40.9258 17.4748 41.6001 19.1026 41.6001 20.8V43.2C41.6001 44.8974 40.9258 46.5253 39.7256 47.7255C38.5253 48.9257 36.8975 49.6 35.2001 49.6H9.6001C7.90271 49.6 6.27485 48.9257 5.07462 47.7255C3.87439 46.5253 3.2001 44.8974 3.2001 43.2V20.8C3.2001 19.1026 3.87439 17.4748 5.07462 16.2745C6.27485 15.0743 7.90271 14.4 9.6001 14.4ZM38.4001 20.8C38.4001 19.9513 38.063 19.1374 37.4628 18.5373C36.8627 17.9372 36.0488 17.6 35.2001 17.6H9.6001C8.75141 17.6 7.93747 17.9372 7.33736 18.5373C6.73724 19.1374 6.4001 19.9513 6.4001 20.8V43.2C6.4001 44.0487 6.73724 44.8626 7.33736 45.4628C7.93747 46.0629 8.75141 46.4 9.6001 46.4H35.2001C36.0488 46.4 36.8627 46.0629 37.4628 45.4628C38.063 44.8626 38.4001 44.0487 38.4001 43.2V20.8Z" fill="#0033CC"/>
<path d="M31.2 27.2C31.6244 27.2 32.0314 27.0314 32.3314 26.7314C32.6315 26.4313 32.8 26.0243 32.8 25.6C32.8 25.1757 32.6315 24.7687 32.3314 24.4686C32.0314 24.1686 31.6244 24 31.2 24H13.6C13.1757 24 12.7687 24.1686 12.4687 24.4686C12.1686 24.7687 12 25.1757 12 25.6C12 26.0243 12.1686 26.4313 12.4687 26.7314C12.7687 27.0314 13.1757 27.2 13.6 27.2H31.2ZM31.2 33.6C31.6244 33.6 32.0314 33.4314 32.3314 33.1314C32.6315 32.8313 32.8 32.4243 32.8 32C32.8 31.5757 32.6315 31.1687 32.3314 30.8686C32.0314 30.5686 31.6244 30.4 31.2 30.4H13.6C13.1757 30.4 12.7687 30.5686 12.4687 30.8686C12.1686 31.1687 12 31.5757 12 32C12 32.4243 12.1686 32.8313 12.4687 33.1314C12.7687 33.4314 13.1757 33.6 13.6 33.6H31.2ZM31.2 40C31.6244 40 32.0314 39.8314 32.3314 39.5314C32.6315 39.2313 32.8 38.8243 32.8 38.4C32.8 37.9757 32.6315 37.5687 32.3314 37.2686C32.0314 36.9686 31.6244 36.8 31.2 36.8H13.6C13.1757 36.8 12.7687 36.9686 12.4687 37.2686C12.1686 37.5687 12 37.9757 12 38.4C12 38.8243 12.1686 39.2313 12.4687 39.5314C12.7687 39.8314 13.1757 40 13.6 40H31.2Z" fill="#0033CC"/>
<path fill-rule="evenodd" clip-rule="evenodd" d="M44.8 24H55.328C56.6951 24.0007 58.026 24.4391 59.1259 25.251C60.2257 26.063 61.0367 27.2058 61.44 28.512L64 36.8V43.2C64 44.8974 63.3257 46.5252 62.1255 47.7255C60.9253 48.9257 59.2974 49.6 57.6 49.6H44.8C43.1026 49.6 41.4748 48.9257 40.2745 47.7255C39.0743 46.5252 38.4 44.8974 38.4 43.2V30.4C38.4 28.7026 39.0743 27.0748 40.2745 25.8745C41.4748 24.6743 43.1026 24 44.8 24ZM60.8 43.2V37.28L58.384 29.456C58.1824 28.8029 57.7769 28.2315 57.2269 27.8255C56.677 27.4195 56.0115 27.2003 55.328 27.2H44.8C43.9513 27.2 43.1374 27.5371 42.5373 28.1373C41.9371 28.7374 41.6 29.5513 41.6 30.4V43.2C41.6 44.0487 41.9371 44.8626 42.5373 45.4627C43.1374 46.0629 43.9513 46.4 44.8 46.4H57.6C58.4487 46.4 59.2626 46.0629 59.8627 45.4627C60.4629 44.8626 60.8 44.0487 60.8 43.2Z" fill="#0033CC"/>
<path fill-rule="evenodd" clip-rule="evenodd" d="M49.6001 30.72H55.0721C55.428 30.7206 55.7736 30.8399 56.0541 31.059C56.3346 31.278 56.5341 31.5844 56.6209 31.9296L57.5489 35.6096L57.6001 36V38.72C57.6001 39.1443 57.4315 39.5513 57.1315 39.8513C56.8314 40.1514 56.4244 40.32 56.0001 40.32H49.6001C49.1758 40.32 48.7688 40.1514 48.4687 39.8513C48.1687 39.5513 48.0001 39.1443 48.0001 38.72V32.32C48.0001 31.8956 48.1687 31.4887 48.4687 31.1886C48.7688 30.8885 49.1758 30.72 49.6001 30.72ZM54.4001 37.12V36.1984L53.8241 33.92H51.2001V37.12H54.4001Z" fill="#0033CC"/>
</svg>
