<svg width="65" height="65" viewBox="0 0 65 65" fill="none" xmlns="http://www.w3.org/2000/svg">
<path d="M6.44141 32.208V40.26C6.44141 41.5413 6.95041 42.7702 7.85643 43.6762C8.76246 44.5822 9.99129 45.0912 11.2726 45.0912H11.4047C11.7814 42.8358 12.9458 40.7872 14.6908 39.3095C16.4359 37.8318 18.6484 37.0208 20.935 37.0208C23.2216 37.0208 25.4342 37.8318 27.1792 39.3095C28.9242 40.7872 30.0886 42.8358 30.4654 45.0912H33.013C33.6537 45.0912 34.2681 44.8367 34.7211 44.3837C35.1741 43.9307 35.4286 43.3163 35.4286 42.6756V32.208H6.44141Z" fill="#515585"/>
<path d="M20.9347 51.5325C22.216 51.5325 23.4449 51.0235 24.3509 50.1175C25.2569 49.2115 25.7659 47.9826 25.7659 46.7013C25.7659 45.42 25.2569 44.1912 24.3509 43.2851C23.4449 42.3791 22.216 41.8701 20.9347 41.8701C19.6534 41.8701 18.4246 42.3791 17.5185 43.2851C16.6125 44.1912 16.1035 45.42 16.1035 46.7013C16.1035 47.9826 16.6125 49.2115 17.5185 50.1175C18.4246 51.0235 19.6534 51.5325 20.9347 51.5325ZM42.6751 9.66211C42.0345 9.66211 41.42 9.91661 40.967 10.3696C40.514 10.8226 40.2595 11.4371 40.2595 12.0777V39.4996C41.4856 38.4025 42.9715 37.6367 44.5764 37.2747C46.1814 36.9127 47.8522 36.9665 49.4305 37.4309C51.0088 37.8954 52.4424 38.7553 53.5954 39.9289C54.7483 41.1026 55.5825 42.5512 56.0189 44.1376C57.2106 43.2518 57.9836 41.8218 57.9353 40.1856C57.657 30.7406 55.7118 21.4191 52.1894 12.651C51.8293 11.7669 51.2138 11.0103 50.4215 10.4779C49.6291 9.94547 48.696 9.66144 47.7414 9.66211H42.6751ZM46.7011 51.5325C47.9824 51.5325 49.2113 51.0235 50.1173 50.1175C51.0233 49.2115 51.5323 47.9826 51.5323 46.7013C51.5323 45.42 51.0233 44.1912 50.1173 43.2851C49.2113 42.3791 47.9824 41.8701 46.7011 41.8701C45.4198 41.8701 44.191 42.3791 43.2849 43.2851C42.3789 44.1912 41.8699 45.42 41.8699 46.7013C41.8699 47.9826 42.3789 49.2115 43.2849 50.1175C44.191 51.0235 45.4198 51.5325 46.7011 51.5325Z" fill="#515585"/>
<mask id="path-3-inside-1_498_484" fill="white">
<path d="M6.44141 25.7666H16.1038V32.2082H6.44141V25.7666Z"/>
</mask>
<path d="M6.44141 25.7666H16.1038V32.2082H6.44141V25.7666Z" fill="#6E91FB"/>
<path d="M16.1038 32.2082V32.8524H16.748V32.2082H16.1038ZM16.1038 25.7666H15.4596V32.2082H16.1038H16.748V25.7666H16.1038ZM16.1038 32.2082V31.564H6.44141V32.2082V32.8524H16.1038V32.2082Z" fill="white" mask="url(#path-3-inside-1_498_484)"/>
<mask id="path-5-inside-2_498_484" fill="white">
<path d="M16.1035 25.7666H25.7659V32.2082H16.1035V25.7666Z"/>
</mask>
<path d="M16.1035 25.7666H25.7659V32.2082H16.1035V25.7666Z" fill="#6E91FB"/>
<path d="M25.7659 32.2082V32.8524H26.4101V32.2082H25.7659ZM25.7659 25.7666H25.1218V32.2082H25.7659H26.4101V25.7666H25.7659ZM25.7659 32.2082V31.564H16.1035V32.2082V32.8524H25.7659V32.2082Z" fill="white" mask="url(#path-5-inside-2_498_484)"/>
<mask id="path-7-inside-3_498_484" fill="white">
<path d="M25.7656 25.7666H35.428V32.2082H25.7656V25.7666Z"/>
</mask>
<path d="M25.7656 25.7666H35.428V32.2082H25.7656V25.7666Z" fill="#6E91FB"/>
<path d="M35.428 32.2082V31.564H25.7656V32.2082V32.8524H35.428V32.2082Z" fill="white" mask="url(#path-7-inside-3_498_484)"/>
<mask id="path-9-inside-4_498_484" fill="white">
<path d="M25.7656 19.3252H35.428V25.7668H25.7656V19.3252Z"/>
</mask>
<path d="M25.7656 19.3252H35.428V25.7668H25.7656V19.3252Z" fill="#6E91FB"/>
<path d="M35.428 25.7668V25.1226H25.7656V25.7668V26.411H35.428V25.7668Z" fill="white" mask="url(#path-9-inside-4_498_484)"/>
</svg>
