<svg width="80" height="59" viewBox="0 0 80 59" fill="none" xmlns="http://www.w3.org/2000/svg">
<path d="M61.4256 57.7478C62.0345 57.677 62.622 57.4804 63.1507 57.1702C63.6795 56.8601 64.1379 56.4431 64.4968 55.9462C64.8557 55.4492 65.1072 54.8832 65.2354 54.2838C65.3636 53.6843 65.3656 53.0646 65.2414 52.4644L62.6207 39.8051C62.4612 39.0345 62.0988 38.3207 61.5709 37.7371C61.043 37.1536 60.3688 36.7216 59.618 36.4859L47.5093 32.6856C47.2102 32.5917 46.9489 32.4048 46.7634 32.1521C46.5779 31.8994 46.4779 31.5941 46.4779 31.2806V25.7335C49.1376 24.257 51.2317 21.9388 52.4312 19.1432C53.6307 16.3475 53.8678 13.2327 53.1052 10.2878C52.3425 7.3428 50.6234 4.73432 48.2177 2.87227C45.8121 1.01022 42.8561 0 39.814 0C36.7719 0 33.8159 1.01022 31.4103 2.87227C29.0046 4.73432 27.2855 7.3428 26.5229 10.2878C25.7602 13.2327 25.9973 16.3475 27.1968 19.1432C28.3963 21.9388 30.4904 24.257 33.1501 25.7335V31.2806C33.1502 31.5941 33.0501 31.8994 32.8646 32.1521C32.6791 32.4048 32.4178 32.5917 32.1187 32.6856L20.01 36.4859C19.2593 36.7216 18.585 37.1536 18.0571 37.7371C17.5292 38.3207 17.1668 39.0345 17.0073 39.8051L14.3866 52.4644C14.2624 53.0646 14.2644 53.6841 14.3926 54.2835C14.5207 54.883 14.7722 55.4492 15.1311 55.9462C15.4899 56.4431 15.9483 56.8598 16.477 57.17C17.0057 57.4802 17.5931 57.677 18.202 57.7478C32.5615 59.4174 47.0661 59.4174 61.4256 57.7478Z" fill="white"/>
<path d="M25.2885 5.54235C24.2811 4.55632 23.0744 3.7973 21.7495 3.31593C20.4246 2.83456 19.012 2.64209 17.6066 2.7515C16.2012 2.86091 14.8355 3.26968 13.601 3.95029C12.3665 4.63091 11.2919 5.56767 10.4493 6.69773C9.60659 7.82779 9.01536 9.1249 8.71523 10.5022C8.4151 11.8796 8.41302 13.3051 8.70913 14.6833C9.00524 16.0615 9.59269 17.3605 10.4321 18.493C11.2714 19.6255 12.3433 20.5654 13.5758 21.2496V25.2437C13.5758 25.4694 13.5037 25.6892 13.3702 25.8712C13.2366 26.0531 13.0484 26.1876 12.8331 26.2552L4.11503 28.9916C3.57439 29.1612 3.08888 29.4722 2.70871 29.8923C2.32854 30.3125 2.06751 30.8264 1.95263 31.3813L0.066035 40.4959C-0.0234289 40.9281 -0.0219736 41.3742 0.070308 41.8058C0.16259 42.2373 0.343678 42.6451 0.602055 43.0029C0.860432 43.3607 1.19044 43.6607 1.5711 43.884C1.95175 44.1073 2.37471 44.249 2.81309 44.3C6.16642 44.6899 9.53322 44.9535 12.9064 45.0905L14.124 39.2082C14.3899 37.9239 14.994 36.7339 15.8739 35.7613C16.7537 34.7887 17.8774 34.0687 19.1288 33.676L30.2056 30.1994V28.2299L23.9142 26.2552C23.6989 26.1876 23.5107 26.0531 23.3772 25.8712C23.2436 25.6892 23.1716 25.4694 23.1715 25.2437V21.2496C23.6422 20.9883 24.0908 20.6891 24.5128 20.3548C23.4904 17.9934 23.0284 15.4274 23.1629 12.8577C23.2975 10.2879 24.025 7.78406 25.2885 5.54235Z" fill="white"/>
<path d="M55.1166 20.3548C55.5386 20.6891 55.9872 20.9883 56.4579 21.2496V25.2437C56.4579 25.4694 56.3858 25.6892 56.2522 25.8712C56.1187 26.0531 55.9305 26.1876 55.7152 26.2552L49.4238 28.2299V30.1994L60.5006 33.676C61.752 34.0686 62.8759 34.7887 63.7558 35.7613C64.6358 36.7339 65.2399 37.9238 65.5058 39.2082L66.7235 45.0905C70.0965 44.9535 73.4632 44.6899 76.8163 44.3C77.2547 44.249 77.6777 44.1073 78.0583 43.884C78.439 43.6607 78.769 43.3607 79.0273 43.0029C79.2857 42.6451 79.4668 42.2373 79.5591 41.8058C79.6514 41.3742 79.6528 40.9281 79.5634 40.4959L77.6768 31.3813C77.5619 30.8265 77.301 30.3125 76.9209 29.8923C76.5408 29.4722 76.0554 29.1613 75.5149 28.9916L66.7968 26.2552C66.5814 26.1876 66.3933 26.0531 66.2597 25.8712C66.1261 25.6892 66.0541 25.4694 66.0541 25.2437V21.2496C67.2866 20.5654 68.3585 19.6255 69.1978 18.493C70.0372 17.3605 70.6246 16.0615 70.9208 14.6833C71.2169 13.3051 71.2148 11.8796 70.9147 10.5022C70.6145 9.1249 70.0233 7.82779 69.1806 6.69773C68.338 5.56767 67.2633 4.63091 66.0289 3.95029C64.7944 3.26968 63.4287 2.86091 62.0233 2.7515C60.6179 2.64209 59.2053 2.83456 57.8804 3.31593C56.5555 3.7973 55.3488 4.55632 54.3414 5.54235C55.6048 7.7841 56.3322 10.2879 56.4667 12.8577C56.6012 15.4274 56.1391 17.9934 55.1166 20.3548Z" fill="white"/>
</svg>
