<svg width="87" height="88" viewBox="0 0 87 88" fill="none" xmlns="http://www.w3.org/2000/svg">
<path d="M43.3982 0C53.8832 0 62.9414 7.80694 64.4717 18.1576C64.5028 18.3954 64.5441 18.6436 64.5648 18.8814C64.6579 19.6776 64.6992 20.4945 64.6992 21.3011C64.6992 23.6897 64.3063 26.0369 63.5308 28.2601C62.869 30.1627 61.349 32.8512 59.0224 36.2428C53.997 43.5431 46.5623 52.0945 43.3878 55.6723C40.2134 52.1049 32.7787 43.5534 27.7533 36.2428C25.4164 32.8408 23.8963 30.1524 23.2449 28.2497C22.7486 26.8124 22.4073 25.3131 22.2315 23.8034C22.1385 22.9762 22.0868 22.1283 22.0868 21.3011C22.0971 9.55445 31.6516 0 43.3982 0ZM43.3982 28.0843C47.1414 28.0843 50.1814 25.0442 50.1814 21.3011C50.1814 17.5579 47.1414 14.5178 43.3982 14.5178C39.655 14.5178 36.6149 17.5579 36.6149 21.3011C36.6149 25.0442 39.655 28.0843 43.3982 28.0843Z" fill="white"/>
<path d="M0.000120163 18.6748V77.8731L24 86.8899V38.0629C21.6217 34.5575 20.1017 31.7863 19.3469 29.6045C19.3055 29.5011 19.2745 29.3874 19.2435 29.284C19.2124 29.1702 19.1711 29.0668 19.1401 28.9634C19.0677 28.7463 19.0056 28.5291 18.9436 28.312C18.9126 28.1879 18.8712 28.0742 18.8402 27.9501C18.8092 27.8467 18.7885 27.7536 18.7575 27.6502C18.7264 27.5365 18.7058 27.4331 18.6747 27.3193C18.6541 27.2469 18.6437 27.1745 18.623 27.1022C18.6024 27.0194 18.5817 26.9367 18.5713 26.854C18.4783 26.43 18.3955 25.9958 18.3232 25.5718L0.000120163 18.6748Z" fill="white"/>
<path d="M28.1252 43.7812V87.0865L58.6602 77.7906V43.7812C52.4249 51.9501 45.2798 59.7777 44.9179 60.1707L43.3875 61.8354L41.8571 60.1707C41.5056 59.7777 34.3604 51.9501 28.1252 43.7812Z" fill="white"/>
<path d="M62.8073 38.0626V77.8625L86.7969 86.8896V27.6913L68.8357 20.9287C68.8357 21.0528 68.8357 21.1769 68.8357 21.301C68.8357 24.1549 68.3704 26.9468 67.4398 29.6146C66.6953 31.7964 65.1753 34.5676 62.8073 38.0626Z" fill="white"/>
</svg>
