<svg width="78" height="63" viewBox="0 0 78 63" fill="none" xmlns="http://www.w3.org/2000/svg">
<path d="M77.9742 52.3233L71.8117 15.3233C72.1774 14.965 72.4663 14.5361 72.6609 14.0626C72.8555 13.5891 72.9517 13.0809 72.9436 12.5691V7.53848C72.9436 6.53783 72.5461 5.57817 71.8385 4.87061C71.131 4.16304 70.1713 3.76554 69.1707 3.76554H67.3848C66.8945 2.64603 66.0886 1.69366 65.0656 1.02491C64.0426 0.356155 62.8469 0 61.6248 0C60.4026 0 59.2069 0.356155 58.1839 1.02491C57.161 1.69366 56.355 2.64603 55.8647 3.76554H52.293C51.8027 2.64603 50.9968 1.69366 49.9738 1.02491C48.9508 0.356155 47.7552 0 46.533 0C45.3108 0 44.1151 0.356155 43.0922 1.02491C42.0692 1.69366 41.2633 2.64603 40.773 3.76554H37.2012C36.7109 2.64603 35.905 1.69366 34.882 1.02491C33.8591 0.356155 32.6634 0 31.4412 0C30.219 0 29.0234 0.356155 28.0004 1.02491C26.9774 1.69366 26.1715 2.64603 25.6812 3.76554H23.8953C22.8947 3.76554 21.935 4.16304 21.2274 4.87061C20.5199 5.57817 20.1224 6.53783 20.1224 7.53848V12.5691C20.123 13.5448 20.5016 14.4824 21.1788 15.185L20.4997 16.5432L17.4562 22.6303H3.77294C2.7723 22.6303 1.81263 23.0278 1.10507 23.7353C0.397506 24.4429 0 25.4026 0 26.4032V28.2142C0 30.4023 0.869212 32.5008 2.41642 34.048C3.96363 35.5952 6.06209 36.4644 8.25017 36.4644H18.4874L15.4942 58.599C15.4221 59.135 15.466 59.6802 15.6231 60.1977C15.7801 60.7152 16.0466 61.193 16.4044 61.5985C16.7622 62.004 17.203 62.3279 17.6969 62.5481C18.1909 62.7684 18.7264 62.8798 19.2672 62.875H62.0272C62.9465 62.8832 63.8372 62.5555 64.5319 61.9534C65.2266 61.3513 65.6776 60.5163 65.8002 59.6051L66.0391 57.8444H73.3461C74.5838 57.8149 75.7609 57.3023 76.6257 56.4163C77.4906 55.5303 77.9745 54.3412 77.9742 53.1031C77.9934 52.8435 77.9934 52.5829 77.9742 52.3233ZM56.0408 33.9491C54.5219 33.9425 53.067 33.3361 51.993 32.2621C50.9189 31.188 50.3126 29.7332 50.3059 28.2142V26.4032C50.3059 25.4026 49.9084 24.4429 49.2009 23.7353C48.4933 23.0278 47.5336 22.6303 46.533 22.6303H20.2733L23.4174 16.342H68.3909L61.1972 30.7421V30.8427C60.7123 31.7894 59.9727 32.5818 59.0616 33.1306C58.1506 33.6795 57.1043 33.963 56.0408 33.9491ZM61.6248 2.50789C62.1543 2.50896 62.6777 2.6215 63.1609 2.83818C63.6441 3.05486 64.0763 3.37083 64.4293 3.76554H58.8202C59.1732 3.37083 59.6054 3.05486 60.0886 2.83818C60.5718 2.6215 61.0952 2.50896 61.6248 2.50789ZM46.533 2.50789C47.0625 2.50896 47.5859 2.6215 48.0691 2.83818C48.5523 3.05486 48.9845 3.37083 49.3375 3.76554H43.7284C44.0815 3.37083 44.5136 3.05486 44.9968 2.83818C45.48 2.6215 46.0034 2.50896 46.533 2.50789ZM31.4412 2.50789C31.9708 2.50896 32.4942 2.6215 32.9774 2.83818C33.4606 3.05486 33.8927 3.37083 34.2458 3.76554H28.6367C28.9897 3.37083 29.4219 3.05486 29.9051 2.83818C30.3883 2.6215 30.9117 2.50896 31.4412 2.50789ZM22.6377 7.53848C22.6377 7.20493 22.7702 6.88504 23.006 6.64919C23.2419 6.41333 23.5618 6.28083 23.8953 6.28083H25.153C25.153 7.94858 25.8155 9.54802 26.9948 10.7273C28.174 11.9066 29.7735 12.5691 31.4412 12.5691C31.7748 12.5691 32.0946 12.4366 32.3305 12.2007C32.5664 11.9649 32.6989 11.645 32.6989 11.3114C32.6989 10.9779 32.5664 10.658 32.3305 10.4221C32.0946 10.1863 31.7748 10.0538 31.4412 10.0538C30.4406 10.0538 29.4809 9.65627 28.7733 8.94871C28.0658 8.24114 27.6683 7.28148 27.6683 6.28083H40.2447C40.2447 7.94858 40.9073 9.54802 42.0865 10.7273C43.2658 11.9066 44.8652 12.5691 46.533 12.5691C46.8665 12.5691 47.1864 12.4366 47.4223 12.2007C47.6581 11.9649 47.7906 11.645 47.7906 11.3114C47.7906 10.9779 47.6581 10.658 47.4223 10.4221C47.1864 10.1863 46.8665 10.0538 46.533 10.0538C45.5323 10.0538 44.5727 9.65627 43.8651 8.94871C43.1576 8.24114 42.76 7.28148 42.76 6.28083H55.3365C55.3365 7.94858 55.999 9.54802 57.1783 10.7273C58.3576 11.9066 59.957 12.5691 61.6248 12.5691C61.9583 12.5691 62.2782 12.4366 62.5141 12.2007C62.7499 11.9649 62.8824 11.645 62.8824 11.3114C62.8824 10.9779 62.7499 10.658 62.5141 10.4221C62.2782 10.1863 61.9583 10.0538 61.6248 10.0538C60.6241 10.0538 59.6645 9.65627 58.9569 8.94871C58.2493 8.24114 57.8518 7.28148 57.8518 6.28083H69.1707C69.5042 6.28083 69.8241 6.41333 70.06 6.64919C70.2958 6.88504 70.4283 7.20493 70.4283 7.53848V12.5691C70.4283 12.9026 70.2958 13.2225 70.06 13.4584C69.8241 13.6942 69.5042 13.8267 69.1707 13.8267H23.8953C23.5618 13.8267 23.2419 13.6942 23.006 13.4584C22.7702 13.2225 22.6377 12.9026 22.6377 12.5691V7.53848ZM63.5741 56.4233L63.1843 59.2656C63.1443 59.57 62.9944 59.8494 62.7627 60.0509C62.5311 60.2525 62.2337 60.3623 61.9266 60.3597H19.1666C18.988 60.3595 18.8115 60.3212 18.6489 60.2475C18.4862 60.1738 18.3412 60.0663 18.2233 59.9321C18.1052 59.7975 18.0171 59.6393 17.9651 59.4679C17.913 59.2966 17.8982 59.1161 17.9215 58.9386L21.0153 36.4644H56.0408C57.5586 36.4464 59.0423 36.0113 60.3294 35.2067C61.6184 34.4294 62.6674 33.3108 63.3603 31.9746V31.8488L68.1017 22.3662L63.5741 56.4233Z" fill="#0033CC"/>
<path d="M30.1829 38.9795H26.41C26.0764 38.9795 25.7566 39.112 25.5207 39.3478C25.2848 39.5837 25.1523 39.9036 25.1523 40.2371C25.1523 40.5707 25.2848 40.8906 25.5207 41.1264C25.7566 41.3623 26.0764 41.4948 26.41 41.4948H30.1829C30.5165 41.4948 30.8364 41.3623 31.0722 41.1264C31.3081 40.8906 31.4406 40.5707 31.4406 40.2371C31.4406 39.9036 31.3081 39.5837 31.0722 39.3478C30.8364 39.112 30.5165 38.9795 30.1829 38.9795Z" fill="#0033CC"/>
<path d="M40.2435 38.9795H36.4705C36.137 38.9795 35.8171 39.112 35.5812 39.3478C35.3454 39.5837 35.2129 39.9036 35.2129 40.2371C35.2129 40.5707 35.3454 40.8906 35.5812 41.1264C35.8171 41.3623 36.137 41.4948 36.4705 41.4948H40.2435C40.577 41.4948 40.8969 41.3623 41.1328 41.1264C41.3686 40.8906 41.5011 40.5707 41.5011 40.2371C41.5011 39.9036 41.3686 39.5837 41.1328 39.3478C40.8969 39.112 40.577 38.9795 40.2435 38.9795Z" fill="#0033CC"/>
<path d="M50.306 38.9795H46.533C46.1995 38.9795 45.8796 39.112 45.6437 39.3478C45.4079 39.5837 45.2754 39.9036 45.2754 40.2371C45.2754 40.5707 45.4079 40.8906 45.6437 41.1264C45.8796 41.3623 46.1995 41.4948 46.533 41.4948H50.306C50.6395 41.4948 50.9594 41.3623 51.1953 41.1264C51.4311 40.8906 51.5636 40.5707 51.5636 40.2371C51.5636 39.9036 51.4311 39.5837 51.1953 39.3478C50.9594 39.112 50.6395 38.9795 50.306 38.9795Z" fill="#0033CC"/>
<path d="M60.3665 38.9795H56.5936C56.26 38.9795 55.9401 39.112 55.7043 39.3478C55.4684 39.5837 55.3359 39.9036 55.3359 40.2371C55.3359 40.5707 55.4684 40.8906 55.7043 41.1264C55.9401 41.3623 56.26 41.4948 56.5936 41.4948H60.3665C60.7001 41.4948 61.02 41.3623 61.2558 41.1264C61.4917 40.8906 61.6242 40.5707 61.6242 40.2371C61.6242 39.9036 61.4917 39.5837 61.2558 39.3478C61.02 39.112 60.7001 38.9795 60.3665 38.9795Z" fill="#0033CC"/>
<path d="M28.9271 45.2676H25.1541C24.8206 45.2676 24.5007 45.4001 24.2648 45.6359C24.029 45.8718 23.8965 46.1917 23.8965 46.5252C23.8965 46.8588 24.029 47.1787 24.2648 47.4145C24.5007 47.6504 24.8206 47.7829 25.1541 47.7829H28.9271C29.2606 47.7829 29.5805 47.6504 29.8164 47.4145C30.0522 47.1787 30.1847 46.8588 30.1847 46.5252C30.1847 46.1917 30.0522 45.8718 29.8164 45.6359C29.5805 45.4001 29.2606 45.2676 28.9271 45.2676Z" fill="#0033CC"/>
<path d="M38.9876 45.2676H35.2147C34.8811 45.2676 34.5612 45.4001 34.3254 45.6359C34.0895 45.8718 33.957 46.1917 33.957 46.5252C33.957 46.8588 34.0895 47.1787 34.3254 47.4145C34.5612 47.6504 34.8811 47.7829 35.2147 47.7829H38.9876C39.3212 47.7829 39.6411 47.6504 39.8769 47.4145C40.1128 47.1787 40.2453 46.8588 40.2453 46.5252C40.2453 46.1917 40.1128 45.8718 39.8769 45.6359C39.6411 45.4001 39.3212 45.2676 38.9876 45.2676Z" fill="#0033CC"/>
<path d="M49.0482 45.2676H45.2752C44.9417 45.2676 44.6218 45.4001 44.3859 45.6359C44.1501 45.8718 44.0176 46.1917 44.0176 46.5252C44.0176 46.8588 44.1501 47.1787 44.3859 47.4145C44.6218 47.6504 44.9417 47.7829 45.2752 47.7829H49.0482C49.3817 47.7829 49.7016 47.6504 49.9375 47.4145C50.1733 47.1787 50.3058 46.8588 50.3058 46.5252C50.3058 46.1917 50.1733 45.8718 49.9375 45.6359C49.7016 45.4001 49.3817 45.2676 49.0482 45.2676Z" fill="#0033CC"/>
<path d="M59.1087 45.2676H55.3358C55.0022 45.2676 54.6823 45.4001 54.4465 45.6359C54.2106 45.8718 54.0781 46.1917 54.0781 46.5252C54.0781 46.8588 54.2106 47.1787 54.4465 47.4145C54.6823 47.6504 55.0022 47.7829 55.3358 47.7829H59.1087C59.4423 47.7829 59.7622 47.6504 59.998 47.4145C60.2339 47.1787 60.3664 46.8588 60.3664 46.5252C60.3664 46.1917 60.2339 45.8718 59.998 45.6359C59.7622 45.4001 59.4423 45.2676 59.1087 45.2676Z" fill="#0033CC"/>
<path d="M27.6693 51.5566H23.8963C23.5628 51.5566 23.2429 51.6891 23.007 51.925C22.7712 52.1609 22.6387 52.4807 22.6387 52.8143C22.6387 53.1478 22.7712 53.4677 23.007 53.7036C23.2429 53.9394 23.5628 54.0719 23.8963 54.0719H27.6693C28.0028 54.0719 28.3227 53.9394 28.5586 53.7036C28.7944 53.4677 28.9269 53.1478 28.9269 52.8143C28.9269 52.4807 28.7944 52.1609 28.5586 51.925C28.3227 51.6891 28.0028 51.5566 27.6693 51.5566Z" fill="#0033CC"/>
<path d="M37.7298 51.5566H33.9569C33.6233 51.5566 33.3034 51.6891 33.0676 51.925C32.8317 52.1609 32.6992 52.4807 32.6992 52.8143C32.6992 53.1478 32.8317 53.4677 33.0676 53.7036C33.3034 53.9394 33.6233 54.0719 33.9569 54.0719H37.7298C38.0634 54.0719 38.3832 53.9394 38.6191 53.7036C38.855 53.4677 38.9875 53.1478 38.9875 52.8143C38.9875 52.4807 38.855 52.1609 38.6191 51.925C38.3832 51.6891 38.0634 51.5566 37.7298 51.5566Z" fill="#0033CC"/>
<path d="M47.7904 51.5557H44.0174C43.6839 51.5557 43.364 51.6882 43.1281 51.924C42.8923 52.1599 42.7598 52.4798 42.7598 52.8133C42.7598 53.1469 42.8923 53.4668 43.1281 53.7026C43.364 53.9385 43.6839 54.071 44.0174 54.071H47.7904C48.1239 54.071 48.4438 53.9385 48.6797 53.7026C48.9155 53.4668 49.048 53.1469 49.048 52.8133C49.048 52.4798 48.9155 52.1599 48.6797 51.924C48.4438 51.6882 48.1239 51.5557 47.7904 51.5557Z" fill="#0033CC"/>
<path d="M57.8529 51.5566H54.0799C53.7464 51.5566 53.4265 51.6891 53.1906 51.925C52.9548 52.1609 52.8223 52.4807 52.8223 52.8143C52.8223 53.1478 52.9548 53.4677 53.1906 53.7036C53.4265 53.9394 53.7464 54.0719 54.0799 54.0719H57.8529C58.1864 54.0719 58.5063 53.9394 58.7422 53.7036C58.978 53.4677 59.1105 53.1478 59.1105 52.8143C59.1105 52.4807 58.978 52.1609 58.7422 51.925C58.5063 51.6891 58.1864 51.5566 57.8529 51.5566Z" fill="#0033CC"/>
</svg>
