<svg width="72" height="75" viewBox="0 0 72 75" fill="none" xmlns="http://www.w3.org/2000/svg">
<path d="M21.5684 40.8281C21.5684 41.0595 21.4513 41.2734 21.255 41.3965C21.1436 41.4668 21.0206 41.5019 20.8946 41.5019C20.7979 41.5019 20.6983 41.4814 20.6075 41.4375L12.539 37.6054C12.3046 37.4941 12.1552 37.2568 12.1552 36.9961V23.9326L0 18.0996V58.1308L35.1359 74.9968V34.9656L21.5655 28.4529V40.8279L21.5684 40.8281Z" fill="white"/>
<path d="M36.4844 34.9686V74.9998L71.6233 58.1338L71.6263 18.0996L36.4873 34.9656L36.4844 34.9686ZM47.3714 61.2095C47.2454 61.5054 47.0051 61.7222 46.721 61.8013L44.8841 62.3052L45.0218 67.4849C45.0335 67.857 44.7405 68.1646 44.3684 68.1734H44.3509C43.9876 68.1734 43.6888 67.8863 43.677 67.5201L43.5481 62.6715L42.0277 63.0845C41.9515 63.1051 41.8753 63.1168 41.7991 63.1168C41.5589 63.1168 41.3275 63.0172 41.1605 62.8355C40.9114 62.5601 40.8382 62.1383 40.9788 61.7574L43.1819 55.8307C43.3284 55.441 43.6536 55.1803 44.0315 55.1539C44.3773 55.1305 44.6907 55.3092 44.8577 55.6227L47.348 60.2633C47.4271 60.4127 47.4652 60.5797 47.4652 60.7555C47.4652 60.9078 47.4329 61.066 47.3714 61.2095Z" fill="white"/>
<path d="M56.9146 10.2803L22.4297 27.372L35.8127 33.7968L70.7521 17.0276L56.9146 10.2803Z" fill="white"/>
<path d="M13.5 36.572L20.2236 39.7653V27.8096L13.5 24.5781V36.572Z" fill="white"/>
<path d="M20.8906 26.6338L55.3845 9.5361L49.5662 6.70312L14.3867 23.5136L20.8906 26.6338Z" fill="white"/>
<path d="M48.0202 5.94727L35.8125 0L0.873047 17.0272L12.8288 22.7635L48.0202 5.94727Z" fill="white"/>
</svg>
