<svg width="61" height="58" viewBox="0 0 61 58" fill="none" xmlns="http://www.w3.org/2000/svg">
<path fill-rule="evenodd" clip-rule="evenodd" d="M17.1335 12.2825H12.5256V7.1032C12.5256 3.18677 15.6821 0 19.5613 0H41.4354C45.3146 0 48.474 3.18677 48.474 7.1032V12.2825H43.8661V7.1032C43.8661 5.75406 42.7717 4.65211 41.4353 4.65211H19.5612C18.2249 4.65211 17.1334 5.75406 17.1334 7.1032L17.1335 12.2825ZM40.5535 35.6444V38.8312C40.5535 39.3941 40.0962 39.8557 39.5387 39.8557H21.4639C20.9064 39.8557 20.4491 39.3941 20.4491 38.8312V35.6444H9.8409L0.00302055 18.4422V44.8478L15.2133 44.8448C15.7738 44.8448 16.2341 45.3065 16.2341 45.8754C16.2341 46.4383 15.7768 46.8999 15.2133 46.8999H0V50.3011H20.9921C21.5526 50.3011 22.0128 50.7598 22.0128 51.3257C22.0128 51.8916 21.5555 52.3502 20.9921 52.3502L0 52.3532V58H60.9991V18.4392L51.1612 35.6414H40.553L40.5535 35.6444ZM20.4495 33.5894V28.3536C20.4495 27.7907 20.9068 27.329 21.4644 27.329H39.5391C40.0967 27.329 40.5539 27.7906 40.5539 28.3536V33.5894H49.9878L61 14.3347H0.00090602L11.0101 33.5894H20.4495ZM38.5182 37.8007V29.378H22.4795V37.8007H38.5182Z" fill="#0033CC"/>
</svg>
