<svg width="82" height="65" viewBox="0 0 82 65" fill="none" xmlns="http://www.w3.org/2000/svg">
<rect x="16.3906" y="3.64258" width="50.0842" height="44.6205" rx="4" fill="#1650FF"/>
<path d="M37.6429 24.7686C37.0413 24.7686 36.5062 24.6709 36.0374 24.4756C35.5713 24.2777 35.2054 24.0081 34.9398 23.667C34.6741 23.3258 34.5413 22.9391 34.5413 22.5068C34.5413 22.1735 34.6168 21.8675 34.7679 21.5889C34.9215 21.3076 35.1299 21.0745 35.3929 20.8896C35.6559 20.7021 35.9502 20.5824 36.2757 20.5303V20.4756C35.8486 20.3896 35.5023 20.1826 35.2366 19.8545C34.971 19.5238 34.8382 19.1396 34.8382 18.7021C34.8382 18.2881 34.9593 17.9196 35.2015 17.5967C35.4437 17.2712 35.7757 17.016 36.1976 16.8311C36.622 16.6436 37.1038 16.5498 37.6429 16.5498C38.1819 16.5498 38.6624 16.6436 39.0843 16.8311C39.5088 17.0186 39.8421 17.2751 40.0843 17.6006C40.3265 17.9235 40.4489 18.2907 40.4515 18.7021C40.4489 19.1423 40.3135 19.5264 40.0452 19.8545C39.777 20.1826 39.4332 20.3896 39.014 20.4756V20.5303C39.3343 20.5824 39.6246 20.7021 39.8851 20.8896C40.1481 21.0745 40.3564 21.3076 40.5101 21.5889C40.6663 21.8675 40.7457 22.1735 40.7483 22.5068C40.7457 22.9391 40.6116 23.3258 40.346 23.667C40.0804 24.0081 39.7132 24.2777 39.2444 24.4756C38.7783 24.6709 38.2444 24.7686 37.6429 24.7686ZM37.6429 23.5264C37.9111 23.5264 38.1455 23.4782 38.346 23.3818C38.5465 23.2829 38.7028 23.1475 38.8148 22.9756C38.9293 22.8011 38.9866 22.6006 38.9866 22.374C38.9866 22.1423 38.928 21.9378 38.8108 21.7607C38.6937 21.5811 38.5348 21.4404 38.3343 21.3389C38.1338 21.2347 37.9033 21.1826 37.6429 21.1826C37.3851 21.1826 37.1546 21.2347 36.9515 21.3389C36.7483 21.4404 36.5882 21.5811 36.471 21.7607C36.3564 21.9378 36.2991 22.1423 36.2991 22.374C36.2991 22.6006 36.3551 22.8011 36.4671 22.9756C36.5791 23.1475 36.7366 23.2829 36.9398 23.3818C37.1429 23.4782 37.3773 23.5264 37.6429 23.5264ZM37.6429 19.9521C37.8668 19.9521 38.0661 19.9066 38.2405 19.8154C38.415 19.7243 38.5517 19.598 38.6507 19.4365C38.7496 19.2751 38.7991 19.0889 38.7991 18.8779C38.7991 18.6696 38.7496 18.4873 38.6507 18.3311C38.5517 18.1722 38.4163 18.0485 38.2444 17.96C38.0726 17.8688 37.872 17.8232 37.6429 17.8232C37.4163 17.8232 37.2158 17.8688 37.0413 17.96C36.8668 18.0485 36.7301 18.1722 36.6312 18.3311C36.5348 18.4873 36.4866 18.6696 36.4866 18.8779C36.4866 19.0889 36.5361 19.2751 36.6351 19.4365C36.734 19.598 36.8707 19.7243 37.0452 19.8154C37.2197 19.9066 37.4189 19.9521 37.6429 19.9521ZM45.0677 24.835C44.3958 24.8324 43.8177 24.667 43.3333 24.3389C42.8515 24.0107 42.4804 23.5355 42.22 22.9131C41.9622 22.2907 41.8346 21.542 41.8372 20.667C41.8372 19.7946 41.9661 19.0511 42.2239 18.4365C42.4843 17.8219 42.8554 17.3545 43.3372 17.0342C43.8216 16.7113 44.3984 16.5498 45.0677 16.5498C45.737 16.5498 46.3125 16.7113 46.7942 17.0342C47.2786 17.3571 47.651 17.8258 47.9114 18.4404C48.1718 19.0524 48.3008 19.7946 48.2982 20.667C48.2982 21.5446 48.1679 22.2946 47.9075 22.917C47.6497 23.5394 47.2799 24.0146 46.7982 24.3428C46.3164 24.6709 45.7396 24.835 45.0677 24.835ZM45.0677 23.4326C45.526 23.4326 45.8919 23.2021 46.1653 22.7412C46.4388 22.2803 46.5742 21.5889 46.5716 20.667C46.5716 20.0602 46.5091 19.555 46.3841 19.1514C46.2617 18.7477 46.0872 18.4443 45.8607 18.2412C45.6367 18.0381 45.3724 17.9365 45.0677 17.9365C44.612 17.9365 44.2474 18.1644 43.9739 18.6201C43.7005 19.0758 43.5625 19.7581 43.5599 20.667C43.5599 21.2816 43.6211 21.7946 43.7435 22.2061C43.8685 22.6149 44.0442 22.9222 44.2708 23.1279C44.4974 23.3311 44.763 23.4326 45.0677 23.4326ZM27.0047 29.6592H28.3758L30.4656 33.2959H30.5516L32.6414 29.6592H34.0125L31.1102 34.5186V37.6592H29.907V34.5186L27.0047 29.6592ZM36.6561 37.7803C36.0649 37.7803 35.5558 37.654 35.1287 37.4014C34.7042 37.1462 34.3761 36.7881 34.1443 36.3271C33.9152 35.8636 33.8006 35.3206 33.8006 34.6982C33.8006 34.0837 33.9152 33.542 34.1443 33.0732C34.3761 32.6045 34.699 32.2386 35.1131 31.9756C35.5298 31.7126 36.0167 31.5811 36.574 31.5811C36.9126 31.5811 37.2407 31.637 37.5584 31.749C37.8761 31.861 38.1613 32.0368 38.4139 32.2764C38.6665 32.516 38.8657 32.8271 39.0115 33.21C39.1574 33.5902 39.2303 34.0524 39.2303 34.5967V35.0107H34.4607V34.1357H38.0857C38.0857 33.8285 38.0232 33.5563 37.8982 33.3193C37.7732 33.0798 37.5975 32.891 37.3709 32.7529C37.1469 32.6149 36.8839 32.5459 36.5818 32.5459C36.2537 32.5459 35.9673 32.6266 35.7225 32.7881C35.4803 32.9469 35.2928 33.1553 35.16 33.4131C35.0298 33.6683 34.9647 33.9456 34.9647 34.2451V34.9287C34.9647 35.3298 35.035 35.6709 35.1756 35.9521C35.3188 36.2334 35.518 36.4482 35.7732 36.5967C36.0285 36.7425 36.3266 36.8154 36.6678 36.8154C36.8891 36.8154 37.091 36.7842 37.2732 36.7217C37.4555 36.6566 37.6131 36.5602 37.7459 36.4326C37.8787 36.305 37.9803 36.1475 38.0506 35.96L39.1561 36.1592C39.0675 36.4847 38.9087 36.7699 38.6795 37.0146C38.4529 37.2568 38.1678 37.4456 37.824 37.5811C37.4829 37.7139 37.0936 37.7803 36.6561 37.7803ZM42.2723 37.792C41.8921 37.792 41.5483 37.7217 41.241 37.5811C40.9337 37.4378 40.6902 37.2308 40.5106 36.96C40.3335 36.6891 40.2449 36.3571 40.2449 35.9639C40.2449 35.6253 40.31 35.3467 40.4402 35.1279C40.5704 34.9092 40.7462 34.736 40.9676 34.6084C41.1889 34.4808 41.4363 34.3844 41.7098 34.3193C41.9832 34.2542 42.2619 34.2048 42.5457 34.1709C42.9051 34.1292 43.1968 34.0954 43.4207 34.0693C43.6447 34.0407 43.8074 33.9951 43.909 33.9326C44.0106 33.8701 44.0613 33.7686 44.0613 33.6279V33.6006C44.0613 33.2594 43.965 32.9951 43.7723 32.8076C43.5822 32.6201 43.2983 32.5264 42.9207 32.5264C42.5275 32.5264 42.2176 32.6136 41.991 32.7881C41.7671 32.96 41.6121 33.1514 41.5262 33.3623L40.4285 33.1123C40.5587 32.7477 40.7488 32.4535 40.9988 32.2295C41.2514 32.0029 41.5418 31.8389 41.8699 31.7373C42.1981 31.6331 42.5431 31.5811 42.9051 31.5811C43.1447 31.5811 43.3986 31.6097 43.6668 31.667C43.9376 31.7217 44.1902 31.8232 44.4246 31.9717C44.6616 32.1201 44.8556 32.3324 45.0066 32.6084C45.1577 32.8818 45.2332 33.2373 45.2332 33.6748V37.6592H44.0926V36.8389H44.0457C43.9702 36.9899 43.8569 37.1383 43.7059 37.2842C43.5548 37.43 43.3608 37.5511 43.1238 37.6475C42.8869 37.7438 42.603 37.792 42.2723 37.792ZM42.5262 36.8545C42.8491 36.8545 43.1251 36.7907 43.3543 36.6631C43.5861 36.5355 43.7619 36.3688 43.8816 36.1631C44.004 35.9548 44.0652 35.7321 44.0652 35.4951V34.7217C44.0236 34.7633 43.9428 34.8024 43.8231 34.8389C43.7059 34.8727 43.5718 34.9027 43.4207 34.9287C43.2697 34.9521 43.1225 34.9743 42.9793 34.9951C42.8361 35.0133 42.7163 35.029 42.6199 35.042C42.3934 35.0706 42.1863 35.1188 41.9988 35.1865C41.8139 35.2542 41.6655 35.3519 41.5535 35.4795C41.4441 35.6045 41.3895 35.7712 41.3895 35.9795C41.3895 36.2686 41.4962 36.4873 41.7098 36.6357C41.9233 36.7816 42.1954 36.8545 42.5262 36.8545ZM46.7889 37.6592V31.6592H47.9178V32.6123H47.9803C48.0897 32.2894 48.2824 32.0355 48.5584 31.8506C48.8371 31.6631 49.1522 31.5693 49.5037 31.5693C49.5766 31.5693 49.6626 31.5719 49.7615 31.5771C49.8631 31.5824 49.9425 31.5889 49.9998 31.5967V32.7139C49.9529 32.7008 49.8696 32.6865 49.7498 32.6709C49.63 32.6527 49.5102 32.6436 49.3904 32.6436C49.1144 32.6436 48.8683 32.7021 48.6522 32.8193C48.4386 32.9339 48.2693 33.0941 48.1443 33.2998C48.0193 33.5029 47.9568 33.7347 47.9568 33.9951V37.6592H46.7889ZM55.5066 33.124L54.4481 33.3115C54.4038 33.1761 54.3335 33.0472 54.2371 32.9248C54.1434 32.8024 54.0158 32.7021 53.8543 32.624C53.6928 32.5459 53.491 32.5068 53.2488 32.5068C52.9181 32.5068 52.6421 32.5811 52.4207 32.7295C52.1994 32.8753 52.0887 33.0641 52.0887 33.2959C52.0887 33.4964 52.1629 33.6579 52.3113 33.7803C52.4598 33.9027 52.6994 34.0029 53.0301 34.0811L53.9832 34.2998C54.5353 34.4274 54.9468 34.624 55.2176 34.8896C55.4884 35.1553 55.6238 35.5003 55.6238 35.9248C55.6238 36.2842 55.5197 36.6045 55.3113 36.8857C55.1056 37.1644 54.8178 37.3831 54.4481 37.542C54.0809 37.7008 53.6551 37.7803 53.1707 37.7803C52.4988 37.7803 51.9507 37.637 51.5262 37.3506C51.1017 37.0615 50.8413 36.6514 50.7449 36.1201L51.8738 35.9482C51.9441 36.2425 52.0887 36.4652 52.3074 36.6162C52.5262 36.7646 52.8113 36.8389 53.1629 36.8389C53.5457 36.8389 53.8517 36.7594 54.0809 36.6006C54.31 36.4391 54.4246 36.2425 54.4246 36.0107C54.4246 35.8232 54.3543 35.6657 54.2137 35.5381C54.0757 35.4105 53.8634 35.3141 53.577 35.249L52.5613 35.0264C52.0014 34.8988 51.5874 34.6956 51.3191 34.417C51.0535 34.1383 50.9207 33.7855 50.9207 33.3584C50.9207 33.0042 51.0197 32.6943 51.2176 32.4287C51.4155 32.1631 51.6889 31.9561 52.0379 31.8076C52.3869 31.6566 52.7866 31.5811 53.2371 31.5811C53.8856 31.5811 54.396 31.7217 54.7684 32.0029C55.1408 32.2816 55.3869 32.6553 55.5066 33.124Z" fill="white"/>
<path fill-rule="evenodd" clip-rule="evenodd" d="M80.6599 30.4496C80.3291 39.9255 72.0019 40.5447 68.5623 39.9829C68.0856 40.8757 67.5556 41.7116 66.9687 42.4942C66.1328 43.6112 65.2221 44.5822 64.2511 45.4431C69.2666 44.3332 70.4867 47.6271 75.6657 45.8948C70.6715 53.9303 63.1656 50.3554 60.4446 48.1536C58.0791 49.5195 55.5394 50.5227 53.021 51.4759C58.5239 51.9455 58.0472 57.1246 63.6498 57.9819C55.4969 62.88 50.4385 56.1784 49.0552 52.9947C46.6008 53.9836 44.3741 55.065 42.5883 56.5768C44.093 58.3767 45.2028 60.6497 45.7044 63.6341C45.8111 64.2708 45.3807 64.8755 44.744 64.9823C44.6799 64.993 44.6124 65.0001 44.5483 65.0001C43.9863 65.0001 43.4918 64.5946 43.3959 64.0219C42.9939 61.6137 42.1402 59.7569 40.9521 58.2629C39.764 59.7569 38.9103 61.6173 38.5084 64.0219C38.4123 64.5946 37.9179 65.0001 37.3559 65.0001C37.2918 65.0001 37.2278 64.993 37.1602 64.9823C36.5235 64.8756 36.0931 64.2744 36.1998 63.6341C36.6978 60.6497 37.8112 58.3803 39.3159 56.5768C37.5267 55.0614 35.3035 53.9836 32.849 52.9947C31.4653 56.1748 26.4071 62.8768 18.2544 57.9819C23.8533 57.1282 23.3767 51.9454 28.8832 51.4759C26.3613 50.5226 23.825 49.5195 21.4596 48.1536C18.7383 50.3555 11.2333 53.9304 6.23851 45.8948C11.4177 47.6271 12.6377 44.3333 17.6532 45.4431C16.6821 44.5822 15.7715 43.6112 14.9355 42.4942C14.3486 41.7116 13.8185 40.8757 13.3419 39.9829C9.89866 40.5449 1.57485 39.926 1.24429 30.4496C4.74454 34.3837 7.98854 31.8226 11.3895 34.9635C10.7137 32.4487 10.3295 29.6314 10.2406 26.4869C6.77596 26.3838 -1.33432 24.1747 0.188243 14.7836C3.19758 19.9023 7.49808 16.8502 10.2588 22.9329C10.3442 20.5746 10.5718 18.0561 10.9418 15.3705C11.1517 13.8409 10.9667 13.848 10.7746 13.0583C9.64698 9.81068 9.53315 4.30779 16.5692 0C17.4656 4.6918 17.8746 8.96399 14.0116 13.5564C13.5456 14.1149 13.4496 14.2999 13.2575 15.6908C9.67191 41.7646 20.3219 45.7622 30.6194 49.626C34.3153 51.0132 38.0787 52.429 40.9595 54.9154C43.8408 52.429 47.6042 51.0132 51.2996 49.626C61.6006 45.763 72.2512 41.7648 68.6616 15.6908C68.5726 15.0505 69.0208 14.46 69.6612 14.3711C70.3015 14.2822 70.892 14.7303 70.9808 15.3707C71.3508 18.0527 71.5784 20.5747 71.6638 22.9331C74.4241 16.854 78.7247 19.906 81.7344 14.7838C83.2568 24.1741 75.1466 26.3833 71.682 26.4871C71.5931 29.628 71.2089 32.4488 70.5331 34.9637C73.9337 31.8228 77.1778 34.3839 80.6783 30.4498L80.6599 30.4496Z" fill="#0033CC"/>
<path fill-rule="evenodd" clip-rule="evenodd" d="M1.26196 30.4496C1.59277 39.9255 9.91997 40.5447 13.3596 39.9829C13.8362 40.8757 14.3663 41.7116 14.9532 42.4942C15.7891 43.6112 16.6997 44.5822 17.6708 45.4431C12.6553 44.3332 11.4352 47.6271 6.25617 45.8948C11.2504 53.9303 18.7563 50.3554 21.4772 48.1536C23.8427 49.5195 26.3825 50.5227 28.9009 51.4759C23.398 51.9455 23.8747 57.1246 18.2721 57.9819C26.425 62.88 31.4834 56.1784 32.8666 52.9947C35.321 53.9836 37.5478 55.065 39.3335 56.5768C37.8289 58.3767 36.719 60.6497 36.2175 63.6341C36.1107 64.2708 36.5412 64.8755 37.1779 64.9823C37.2419 64.993 37.3095 65.0001 37.3735 65.0001C37.9356 65.0001 38.43 64.5946 38.526 64.0219C38.928 61.6137 39.7817 59.7569 40.9698 58.2629C42.1579 59.7569 43.0116 61.6173 43.4135 64.0219C43.5096 64.5946 44.004 65.0001 44.566 65.0001C44.63 65.0001 44.694 64.993 44.7616 64.9823C45.3984 64.8756 45.8288 64.2744 45.7221 63.6341C45.2241 60.6497 44.1107 58.3803 42.606 56.5768C44.3952 55.0614 46.6184 53.9836 49.0729 52.9947C50.4566 56.1748 55.5148 62.8768 63.6674 57.9819C58.0686 57.1282 58.5452 51.9454 53.0386 51.4759C55.5606 50.5226 58.0969 49.5195 60.4623 48.1536C63.1835 50.3555 70.6886 53.9304 75.6834 45.8948C70.5042 47.6271 69.2842 44.3333 64.2687 45.4431C65.2398 44.5822 66.1504 43.6112 66.9864 42.4942C67.5733 41.7116 68.1033 40.8757 68.58 39.9829C72.0232 40.5449 80.347 39.926 80.6776 30.4496C77.1773 34.3837 73.9333 31.8226 70.5323 34.9635C71.2082 32.4487 71.5924 29.6314 71.6813 26.4869C75.1459 26.3838 83.2562 24.1747 81.7336 14.7836C78.7243 19.9023 74.4238 16.8502 71.6631 22.9329C71.5777 20.5746 71.35 18.0561 70.9801 15.3705C70.7702 13.8409 70.9552 13.848 71.1473 13.0583C72.2749 9.81068 72.3887 4.30779 65.3527 0C64.4563 4.6918 64.0472 8.96399 67.9103 13.5564C68.3763 14.1149 68.4723 14.2999 68.6644 15.6908C72.25 41.7646 61.6 45.7622 51.3025 49.626C47.6066 51.0132 43.8432 52.429 40.9623 54.9154C38.081 52.429 34.3176 51.0132 30.6222 49.626C20.3213 45.763 9.67063 41.7648 13.2603 15.6908C13.3492 15.0505 12.901 14.46 12.2607 14.3711C11.6204 14.2822 11.0299 14.7303 10.941 15.3707C10.5711 18.0527 10.3434 20.5747 10.2581 22.9331C7.4978 16.854 3.1972 19.906 0.1875 14.7838C-1.33497 24.1741 6.77531 26.3833 10.2399 26.4871C10.3288 29.628 10.713 32.4488 11.3888 34.9637C7.98817 31.8228 4.74407 34.3839 1.24355 30.4498L1.26196 30.4496Z" fill="#0033CC"/>
</svg>
